<svg xmlns="http://www.w3.org/2000/svg" width="159.681" height="65.346" viewBox="0 0 159.681 65.346">
  <g id="Group_3" data-name="Group 3" transform="translate(-215.756 -445.96)">
    <path id="Path_312" data-name="Path 312" d="M246.066,450.685a30.311,30.311,0,1,0,30.312,30.306A30.322,30.322,0,0,0,246.066,450.685Zm6.4,4.232-2.5,8.72S235.9,468.9,226.382,481.761C226.382,481.761,230.2,467.44,252.461,454.917ZM248.633,468.8l-1.844,6.33s-14.924,1.277-21.428,9.918C225.361,485.044,229.2,474.1,248.633,468.8ZM224.941,488.21c0-8.083,20.683-9.668,20.683-9.668l-.949,3.705.024-.059a1.937,1.937,0,0,1-1.89,1.43h-.046c-1.238.014-15.617.243-15.873,5.753-.009,2.431,5.142,5.9,5.142,5.9S224.941,492.481,224.941,488.21Zm8.515,7.376c-10.412-6.4-3.39-8.927-3.39-8.927C226.561,489.5,233.456,495.586,233.456,495.586Zm-1.587-9.519c-2.407,3.893,2.024,9.432,2.024,9.432C226.258,488.561,231.869,486.067,231.869,486.067Zm6.149,11.265a9.624,9.624,0,0,1-.34,2.882,4.054,4.054,0,0,1-1.662,2.123,5.554,5.554,0,0,1-3.154.794,4.781,4.781,0,0,1-3.546-1.247,5.029,5.029,0,0,1-1.247-3.666l2.975-.344a3.855,3.855,0,0,0,.387,1.842,1.68,1.68,0,0,0,1.54.812,1.713,1.713,0,0,0,1.474-.592,4.513,4.513,0,0,0,.429-2.408v-9.764h3.144Zm18.358,5.563h-2.9l-.01-11.925-3.092,11.925h-3.024l-3.076-11.925-.008,11.925h-2.912V487.764h4.711l2.812,10.313,2.786-10.313h4.714Zm6.18,0h-3.145V487.764h3.145Z" fill="#005972"/>
    <path id="Path_313" data-name="Path 313" d="M276.221,464.354h29.895v-9.665H268.283A34.608,34.608,0,0,1,276.221,464.354Z" fill="#004493"/>
    <path id="Path_314" data-name="Path 314" d="M280.345,484.329h25.771v-9.667h-26.2a34.534,34.534,0,0,1,.591,6.327C280.509,482.116,280.451,483.229,280.345,484.329Z" fill="#004493"/>
    <path id="Path_315" data-name="Path 315" d="M306.116,503.162v-9.667H278.158a34.424,34.424,0,0,1-5.741,9.667Z" fill="#004493"/>
    <path id="Path_316" data-name="Path 316" d="M329.449,454.66h-15.1c-.186,0-.367.021-.55.029h-.544v9.665H329.2a2.843,2.843,0,0,1,2.835,2.835v4.638a2.842,2.842,0,0,1-2.835,2.835H313.256v4.524l14.594,23.976h10.124s-11.314-18.8-11.3-18.806h2.774A12.466,12.466,0,0,0,341.9,471.9v-4.794A12.466,12.466,0,0,0,329.449,454.66Z" fill="#004493"/>
    <path id="Path_317" data-name="Path 317" d="M352.121,484.356l-3.867-9.694H362.74a2.842,2.842,0,0,0,2.835-2.835v-4.638a2.843,2.843,0,0,0-2.835-2.835l-16.694.1-3.622-9.792h20.561a12.465,12.465,0,0,1,12.452,12.451V471.9a12.465,12.465,0,0,1-12.452,12.451Z" fill="#004493"/>
    <path id="Path_318" data-name="Path 318" d="M334.76,445.96" fill="#004493"/>
  </g>
</svg>
