<svg xmlns="http://www.w3.org/2000/svg" width="98.064" height="36.774" viewBox="0 0 98.064 36.774">
  <g id="logo" transform="translate(0 0)">
    <path id="Path_312" data-name="Path 312" d="M234.333,450.685a18.388,18.388,0,1,0,18.578,18.386A18.483,18.483,0,0,0,234.333,450.685Zm3.923,2.567-1.532,5.29a35.586,35.586,0,0,0-14.455,10.994s2.34-8.687,15.984-16.284Zm-2.349,8.422-1.13,3.84s-9.147.775-13.133,6.016C221.643,471.528,224,464.889,235.906,461.674Zm-14.521,11.774c0-4.9,12.677-5.865,12.677-5.865l-.582,2.247.015-.036a1.185,1.185,0,0,1-1.158.867h-.028c-.759.009-9.572.147-9.729,3.49-.006,1.475,3.152,3.579,3.152,3.579S221.385,476.039,221.385,473.448Zm5.219,4.474c-6.382-3.882-2.078-5.415-2.078-5.415C222.378,474.231,226.6,477.923,226.6,477.923Zm-.973-5.774c-1.475,2.362,1.241,5.721,1.241,5.721-4.68-4.209-1.241-5.721-1.241-5.721Zm3.769,6.834a5.781,5.781,0,0,1-.208,1.748,2.463,2.463,0,0,1-1.019,1.288,3.431,3.431,0,0,1-1.933.482,2.949,2.949,0,0,1-2.173-.756,3.031,3.031,0,0,1-.764-2.224l1.823-.209a2.318,2.318,0,0,0,.237,1.117,1.032,1.032,0,0,0,.944.492,1.055,1.055,0,0,0,.9-.359,2.713,2.713,0,0,0,.263-1.461v-5.923H229.4Zm11.252,3.375h-1.777l-.006-7.234-1.9,7.234H235.12l-1.885-7.234,0,7.234h-1.785v-9.179h2.887l1.723,6.256,1.708-6.256h2.889Zm3.788,0h-1.928v-9.179h1.928Z" transform="translate(-215.756 -450.685)" fill="#005972"/>
    <path id="Path_313" data-name="Path 313" d="M273.148,460.613h18.323v-5.924H268.283A21.21,21.21,0,0,1,273.148,460.613Z" transform="translate(-236.005 -452.235)" fill="#004493"/>
    <path id="Path_314" data-name="Path 314" d="M280.179,480.587h15.8v-5.925H279.916a21.169,21.169,0,0,1,.362,3.878C280.279,479.231,280.244,479.913,280.179,480.587Z" transform="translate(-240.498 -460.146)" fill="#004493"/>
    <path id="Path_315" data-name="Path 315" d="M293.071,499.42v-5.925H275.936a21.1,21.1,0,0,1-3.519,5.925Z" transform="translate(-237.601 -467.638)" fill="#004493"/>
    <path id="Path_316" data-name="Path 316" d="M323.18,454.66h-9.255c-.114,0-.225.013-.337.018h-.333v5.848h9.773a1.731,1.731,0,0,1,1.738,1.715v2.806a1.731,1.731,0,0,1-1.738,1.715h-9.772V469.5l8.945,14.507h6.205s-6.934-11.375-6.926-11.378h1.7a7.592,7.592,0,0,0,7.632-7.536v-2.9A7.592,7.592,0,0,0,323.18,454.66Z" transform="translate(-253.352 -452.224)" fill="#004493"/>
    <path id="Path_317" data-name="Path 317" d="M348.367,472.862,346,466.92h8.879a1.742,1.742,0,0,0,1.738-1.738V462.34a1.742,1.742,0,0,0-1.738-1.738l-10.232.061-2.22-6h12.6a7.64,7.64,0,0,1,7.632,7.631v2.934a7.64,7.64,0,0,1-7.632,7.631Z" transform="translate(-264.593 -452.224)" fill="#004493"/>
  </g>
</svg>
