<svg id="Layer_1" data-name="Layer 1" xmlns="http://www.w3.org/2000/svg" viewBox="0 0 225.08 41.72"><defs><style>.cls-1,.cls-2{fill:#231f20;}.cls-1{stroke:#fff;stroke-miterlimit:10;stroke-width:0.5px;}</style></defs><path class="cls-1" d="M5.87,82.62H17a.11.11,0,0,0,.08,0L40.2,59.43a.79.79,0,0,0-.56-1.35H31.87a2.63,2.63,0,0,0-1.84.75L5.8,82.44A.1.1,0,0,0,5.87,82.62Z" transform="translate(-5.51 -57.24)"/><path class="cls-1" d="M79,82.62H67.62L53.4,68.41,39.18,82.62H27.78L48,63l4.7-4.59a1.07,1.07,0,0,1,.74-.3h0a1,1,0,0,1,.73.3L58.84,63Z" transform="translate(-5.51 -57.24)"/><path class="cls-1" d="M50.85,81.23a2.45,2.45,0,0,1,0,3.49l-3.82,3.82-9.59,9.59H26.06L41.55,83,29,70.51l3-3,9.72-9.48H52.53L40,70.64l7.15,7Z" transform="translate(-5.51 -57.24)"/><path class="cls-2" d="M99.7,58.61l5.06,14.27,5-14.27h5.33V78.28H111V72.9l.41-9.28-5.32,14.66h-2.78l-5.3-14.65.41,9.27v5.38h-4V58.61Z" transform="translate(-5.51 -57.24)"/><path class="cls-2" d="M117.78,70.84a8.65,8.65,0,0,1,.84-3.88A6.17,6.17,0,0,1,121,64.32a7.06,7.06,0,0,1,3.66-.93,6.65,6.65,0,0,1,4.83,1.81,7.3,7.3,0,0,1,2.09,4.92l0,1a7.66,7.66,0,0,1-1.87,5.4,7.3,7.3,0,0,1-10.09,0A7.79,7.79,0,0,1,117.78,71Zm3.91.27a5.48,5.48,0,0,0,.78,3.19,2.82,2.82,0,0,0,4.46,0,6,6,0,0,0,.8-3.48,5.44,5.44,0,0,0-.8-3.17,2.58,2.58,0,0,0-2.24-1.12,2.54,2.54,0,0,0-2.22,1.12A6.07,6.07,0,0,0,121.69,71.11Z" transform="translate(-5.51 -57.24)"/><path class="cls-2" d="M137.63,63.66l.12,1.69a5.11,5.11,0,0,1,4.21-2,4.25,4.25,0,0,1,3.46,1.37,6.42,6.42,0,0,1,1.16,4.08v9.44h-3.91V68.93a2.52,2.52,0,0,0-.54-1.8,2.39,2.39,0,0,0-1.79-.56,2.71,2.71,0,0,0-2.48,1.4V78.28H134V63.66Z" transform="translate(-5.51 -57.24)"/><path class="cls-2" d="M148.93,70.84a8.65,8.65,0,0,1,.84-3.88,6.17,6.17,0,0,1,2.41-2.64,7.06,7.06,0,0,1,3.66-.93,6.65,6.65,0,0,1,4.83,1.81,7.25,7.25,0,0,1,2.08,4.92l0,1a7.62,7.62,0,0,1-1.88,5.4,7.28,7.28,0,0,1-10.08,0A7.79,7.79,0,0,1,148.93,71Zm3.91.27a5.48,5.48,0,0,0,.78,3.19,2.82,2.82,0,0,0,4.46,0,6,6,0,0,0,.8-3.48,5.44,5.44,0,0,0-.8-3.17,2.58,2.58,0,0,0-2.24-1.12,2.54,2.54,0,0,0-2.22,1.12A6.07,6.07,0,0,0,152.84,71.11Z" transform="translate(-5.51 -57.24)"/><path class="cls-2" d="M168.78,63.66l.12,1.69a5.11,5.11,0,0,1,4.21-2,4.25,4.25,0,0,1,3.46,1.37,6.42,6.42,0,0,1,1.16,4.08v9.44h-3.91V68.93a2.52,2.52,0,0,0-.54-1.8,2.4,2.4,0,0,0-1.8-.56A2.7,2.7,0,0,0,169,68V78.28h-3.9V63.66Z" transform="translate(-5.51 -57.24)"/><path class="cls-2" d="M191.15,73.12a2.07,2.07,0,0,0-.81-1.76,11,11,0,0,0-2.92-1.3,21.22,21.22,0,0,1-3.34-1.34c-2.24-1.21-3.35-2.84-3.35-4.88a4.76,4.76,0,0,1,.9-2.85,5.9,5.9,0,0,1,2.58-2,9.67,9.67,0,0,1,3.77-.7,8.83,8.83,0,0,1,3.76.76,6,6,0,0,1,2.56,2.16,5.6,5.6,0,0,1,.91,3.16h-4.05a2.64,2.64,0,0,0-.85-2.1,3.51,3.51,0,0,0-2.39-.75,3.73,3.73,0,0,0-2.31.63,2,2,0,0,0-.83,1.65,1.89,1.89,0,0,0,1,1.61,10.67,10.67,0,0,0,2.84,1.21,12.28,12.28,0,0,1,5,2.59,5.09,5.09,0,0,1,1.58,3.83,4.73,4.73,0,0,1-1.93,4,8.44,8.44,0,0,1-5.2,1.45,10,10,0,0,1-4.14-.83,6.47,6.47,0,0,1-2.84-2.28,5.84,5.84,0,0,1-1-3.35h4.07c0,2.17,1.29,3.26,3.89,3.26a3.84,3.84,0,0,0,2.26-.59A1.91,1.91,0,0,0,191.15,73.12Z" transform="translate(-5.51 -57.24)"/><path class="cls-2" d="M197.09,70.84a8.65,8.65,0,0,1,.84-3.88,6.17,6.17,0,0,1,2.41-2.64,7.06,7.06,0,0,1,3.66-.93,6.65,6.65,0,0,1,4.83,1.81,7.3,7.3,0,0,1,2.09,4.92l0,1a7.62,7.62,0,0,1-1.88,5.4,7.28,7.28,0,0,1-10.08,0A7.79,7.79,0,0,1,197.09,71Zm3.91.27a5.48,5.48,0,0,0,.78,3.19,2.82,2.82,0,0,0,4.46,0,6,6,0,0,0,.8-3.48,5.44,5.44,0,0,0-.8-3.17A2.58,2.58,0,0,0,204,66.54a2.54,2.54,0,0,0-2.22,1.12A6.07,6.07,0,0,0,201,71.11Z" transform="translate(-5.51 -57.24)"/><path class="cls-2" d="M214.42,78.28V66.53h-2.18V63.66h2.18V62.42a5.06,5.06,0,0,1,1.41-3.82,5.49,5.49,0,0,1,3.95-1.36,9.22,9.22,0,0,1,2,.27l0,3a5.08,5.08,0,0,0-1.19-.12c-1.47,0-2.21.69-2.21,2.07v1.17h2.91v2.87h-2.91V78.28Z" transform="translate(-5.51 -57.24)"/><path class="cls-2" d="M227.94,60.07v3.59h2.5v2.87h-2.5v7.29a1.82,1.82,0,0,0,.31,1.17,1.59,1.59,0,0,0,1.19.35,5.59,5.59,0,0,0,1.15-.1v3a7.8,7.8,0,0,1-2.36.35q-4.11,0-4.19-4.15V66.53H221.9V63.66H224V60.07Z" transform="translate(-5.51 -57.24)"/><path class="cls-2" d="M101.74,93.81a3.53,3.53,0,0,1-1.19,2,3.18,3.18,0,0,1-2.2.7,2.25,2.25,0,0,1-1.78-.8,3.22,3.22,0,0,1-.72-2.08,5.43,5.43,0,0,1,0-.9l.15-1a5.61,5.61,0,0,1,.72-2,3.83,3.83,0,0,1,1.31-1.34,3.21,3.21,0,0,1,1.7-.43,2.46,2.46,0,0,1,1.87.76,2.76,2.76,0,0,1,.66,2h-.69a2.31,2.31,0,0,0-.49-1.57,1.77,1.77,0,0,0-1.38-.57,2.45,2.45,0,0,0-1.95.85,4.54,4.54,0,0,0-1,2.42L96.57,93l0,.52a3.4,3.4,0,0,0,.2,1.26,1.81,1.81,0,0,0,.63.89,1.78,1.78,0,0,0,1,.32,2.4,2.4,0,0,0,1.67-.5,3.12,3.12,0,0,0,1-1.62Z" transform="translate(-5.51 -57.24)"/><path class="cls-2" d="M107.27,90.78a2.4,2.4,0,0,0-.46,0,2,2,0,0,0-1.2.4,1.84,1.84,0,0,0-.73,1l-.74,4.29h-.68l1.08-6.23h.68l-.21,1a2.36,2.36,0,0,1,.82-.84,1.86,1.86,0,0,1,1.53-.2Z" transform="translate(-5.51 -57.24)"/><path class="cls-2" d="M110.31,96.54a2.1,2.1,0,0,1-1.29-.42,2.34,2.34,0,0,1-.81-1.1,3.44,3.44,0,0,1-.18-1.51l0-.2a4.24,4.24,0,0,1,.51-1.64,3.18,3.18,0,0,1,1.1-1.19,2.48,2.48,0,0,1,1.41-.4,2,2,0,0,1,1.18.38,2.07,2.07,0,0,1,.7,1,3.42,3.42,0,0,1,.14,1.45l0,.42h-4.31l0,.14a2.86,2.86,0,0,0,.1,1.2,1.84,1.84,0,0,0,.58.91,1.52,1.52,0,0,0,1,.34,1.83,1.83,0,0,0,1-.21,3.18,3.18,0,0,0,.82-.61l.4.32a2.74,2.74,0,0,1-2.27,1.09Zm.73-5.87a1.79,1.79,0,0,0-1.34.53,3.28,3.28,0,0,0-.89,1.57h3.61l0-.09a2,2,0,0,0-.29-1.41A1.3,1.3,0,0,0,111,90.67Z" transform="translate(-5.51 -57.24)"/><path class="cls-2" d="M118.28,96.43a2.16,2.16,0,0,1,0-.44l0-.43a3.34,3.34,0,0,1-1,.73,2.56,2.56,0,0,1-1.2.25,1.78,1.78,0,0,1-1.28-.5,1.49,1.49,0,0,1-.44-1.22,1.84,1.84,0,0,1,.42-1.07,2.45,2.45,0,0,1,1.08-.7,4.48,4.48,0,0,1,1.56-.25h1.27l.1-.72a1.23,1.23,0,0,0-.27-1,1.34,1.34,0,0,0-1-.41,2,2,0,0,0-1.19.33,1.55,1.55,0,0,0-.63.92h-.67a1.94,1.94,0,0,1,.84-1.33,2.93,2.93,0,0,1,1.72-.51,2,2,0,0,1,1.48.59,1.71,1.71,0,0,1,.42,1.45L119,95.24l0,.5a2.17,2.17,0,0,0,0,.62l0,.07Zm-2-.49a2.2,2.2,0,0,0,1.21-.3,2.84,2.84,0,0,0,1-.93l.23-1.38h-1.1a3.47,3.47,0,0,0-1.71.37,1.34,1.34,0,0,0-.73,1.07,1,1,0,0,0,.27.83A1.15,1.15,0,0,0,116.24,95.94Z" transform="translate(-5.51 -57.24)"/><path class="cls-2" d="M123.59,88.6l-.28,1.6h1.25l-.1.56h-1.25l-.69,4.16v.36c0,.41.19.63.58.64a4.79,4.79,0,0,0,.55,0l0,.56a2,2,0,0,1-.69.09,1,1,0,0,1-.89-.42,1.88,1.88,0,0,1-.2-1.2l.69-4.15h-1.12l.1-.56h1.11l.28-1.6Z" transform="translate(-5.51 -57.24)"/><path class="cls-2" d="M126.26,96.43h-.69l1.09-6.23h.68Zm.59-8c0-.25.18-.4.49-.47a.64.64,0,0,1,.32.14.56.56,0,0,1,.13.33.56.56,0,0,1-.5.47C127,88.81,126.83,88.66,126.85,88.39Z" transform="translate(-5.51 -57.24)"/><path class="cls-2" d="M130.79,95.45l2.66-5.25h.73L131,96.43h-.56l-1.3-6.23h.68Z" transform="translate(-5.51 -57.24)"/><path class="cls-2" d="M135.62,96.43h-.69L136,90.2h.68Zm.59-8c0-.25.18-.4.49-.47a.64.64,0,0,1,.32.14.56.56,0,0,1,.12.33.57.57,0,0,1-.16.32.63.63,0,0,1-.33.15C136.34,88.81,136.19,88.66,136.21,88.39Z" transform="translate(-5.51 -57.24)"/><path class="cls-2" d="M140.48,88.6l-.28,1.6h1.25l-.1.56H140.1l-.69,4.16v.36c0,.41.19.63.57.64a4.93,4.93,0,0,0,.56,0l0,.56a2,2,0,0,1-.69.09,1,1,0,0,1-.88-.42,1.88,1.88,0,0,1-.2-1.2l.69-4.15H138.3l.1-.56h1.11l.28-1.6Z" transform="translate(-5.51 -57.24)"/><path class="cls-2" d="M144.47,95.41l2.66-5.21h.77l-3.8,7.23a3.31,3.31,0,0,1-.89,1.19,1.59,1.59,0,0,1-1,.34,3.75,3.75,0,0,1-.56-.09l.07-.57.35,0a1.63,1.63,0,0,0,1.52-1.15l.44-.86-1.2-6.14h.72Z" transform="translate(-5.51 -57.24)"/><path class="cls-2" d="M152.66,96.43H152l1.09-6.23h.68Zm.59-8c0-.25.18-.4.49-.47a.64.64,0,0,1,.32.14.56.56,0,0,1,.13.33.56.56,0,0,1-.5.47C153.38,88.81,153.23,88.66,153.25,88.39Z" transform="translate(-5.51 -57.24)"/><path class="cls-2" d="M156.84,90.2l-.2,1.06a2.86,2.86,0,0,1,1-.88,2.16,2.16,0,0,1,1.16-.3,1.54,1.54,0,0,1,1.31.63,2.44,2.44,0,0,1,.29,1.66l-.68,4.06H159l.68-4.06a3.43,3.43,0,0,0,0-.64,1,1,0,0,0-1.12-1,1.83,1.83,0,0,0-1.13.36,3.2,3.2,0,0,0-.92,1.12l-.73,4.27h-.68l1.08-6.23Z" transform="translate(-5.51 -57.24)"/><path class="cls-2" d="M165.62,96.43,167.08,88h2.36a2.7,2.7,0,0,1,1.81.59,1.78,1.78,0,0,1,.52,1.56,2,2,0,0,1-.48,1.14,2.51,2.51,0,0,1-1.12.74,1.59,1.59,0,0,1,.93.72,1.93,1.93,0,0,1,.29,1.22,2.44,2.44,0,0,1-.89,1.75,3.14,3.14,0,0,1-2.08.66Zm1.41-4-.6,3.42h2a2.41,2.41,0,0,0,1.53-.48,1.9,1.9,0,0,0,.72-1.32,1.41,1.41,0,0,0-.33-1.16,1.6,1.6,0,0,0-1.19-.46Zm.09-.6H169a2.32,2.32,0,0,0,1.46-.46,1.67,1.67,0,0,0,.64-1.19c.1-1-.45-1.48-1.64-1.51h-1.74Z" transform="translate(-5.51 -57.24)"/><path class="cls-2" d="M177.26,95.64a2.36,2.36,0,0,1-2,.9,1.54,1.54,0,0,1-1.32-.63,2.54,2.54,0,0,1-.31-1.72l.67-4h.68l-.66,4a2.58,2.58,0,0,0,0,.62,1.28,1.28,0,0,0,.32.82,1.05,1.05,0,0,0,.76.3,2.21,2.21,0,0,0,1.28-.32,1.6,1.6,0,0,0,.76-.91l.77-4.51h.69l-1.08,6.23h-.67Z" transform="translate(-5.51 -57.24)"/><path class="cls-2" d="M184,94.8c.06-.53-.26-.91-1-1.15l-1-.29c-.91-.31-1.34-.82-1.29-1.54a1.6,1.6,0,0,1,.72-1.26,2.58,2.58,0,0,1,1.61-.48,2.21,2.21,0,0,1,1.49.52,1.57,1.57,0,0,1,.52,1.34h-.67a1.12,1.12,0,0,0-.35-.91,1.54,1.54,0,0,0-1-.36,1.83,1.83,0,0,0-1.1.31,1.09,1.09,0,0,0-.51.81c-.06.5.24.84.91,1l.72.21.38.13c.87.33,1.28.86,1.23,1.6A1.65,1.65,0,0,1,184,96a2.7,2.7,0,0,1-1.55.54h-.24a3,3,0,0,1-1.13-.24,1.82,1.82,0,0,1-.78-.66,1.5,1.5,0,0,1-.23-1h.68a1.16,1.16,0,0,0,.4.93,1.66,1.66,0,0,0,1.09.35,2.12,2.12,0,0,0,1.18-.31A1.14,1.14,0,0,0,184,94.8Z" transform="translate(-5.51 -57.24)"/><path class="cls-2" d="M187.26,96.43h-.69l1.09-6.23h.68Zm.59-8c0-.25.18-.4.49-.47a.64.64,0,0,1,.32.14.56.56,0,0,1,.12.33.57.57,0,0,1-.16.32.68.68,0,0,1-.33.15C188,88.81,187.83,88.66,187.85,88.39Z" transform="translate(-5.51 -57.24)"/><path class="cls-2" d="M191.44,90.2l-.21,1.06a3.06,3.06,0,0,1,1-.88,2.2,2.2,0,0,1,1.17-.3,1.55,1.55,0,0,1,1.31.63,2.38,2.38,0,0,1,.28,1.66l-.67,4.06h-.68l.68-4.06a4.58,4.58,0,0,0,0-.64,1,1,0,0,0-1.12-1A1.83,1.83,0,0,0,192,91a3.1,3.1,0,0,0-.92,1.12l-.74,4.27h-.68l1.09-6.23Z" transform="translate(-5.51 -57.24)"/><path class="cls-2" d="M199.1,96.54a2.1,2.1,0,0,1-1.29-.42A2.28,2.28,0,0,1,197,95a3.44,3.44,0,0,1-.18-1.51l0-.2a4.07,4.07,0,0,1,.51-1.64,3.1,3.1,0,0,1,1.1-1.19,2.48,2.48,0,0,1,1.41-.4,2,2,0,0,1,1.18.38,2.13,2.13,0,0,1,.7,1,3.42,3.42,0,0,1,.14,1.45l0,.42h-4.31l0,.14a2.7,2.7,0,0,0,.09,1.2,1.93,1.93,0,0,0,.59.91,1.49,1.49,0,0,0,1,.34,1.84,1.84,0,0,0,1-.21,3.18,3.18,0,0,0,.82-.61l.4.32a2.74,2.74,0,0,1-2.27,1.09Zm.73-5.87a1.79,1.79,0,0,0-1.34.53,3.38,3.38,0,0,0-.9,1.57h3.62l0-.09a2,2,0,0,0-.29-1.41A1.3,1.3,0,0,0,199.83,90.67Z" transform="translate(-5.51 -57.24)"/><path class="cls-2" d="M207.13,94.8c.06-.53-.26-.91-1-1.15l-1-.29c-.91-.31-1.34-.82-1.29-1.54a1.57,1.57,0,0,1,.72-1.26,2.56,2.56,0,0,1,1.61-.48,2.18,2.18,0,0,1,1.48.52,1.57,1.57,0,0,1,.53,1.34h-.68a1.09,1.09,0,0,0-.35-.91,1.49,1.49,0,0,0-1-.36,1.89,1.89,0,0,0-1.11.31,1.09,1.09,0,0,0-.51.81c-.05.5.25.84.91,1l.72.21.39.13c.87.33,1.28.86,1.23,1.6a1.65,1.65,0,0,1-.65,1.23,2.7,2.7,0,0,1-1.55.54h-.24a2.88,2.88,0,0,1-1.13-.24,1.82,1.82,0,0,1-.78-.66,1.57,1.57,0,0,1-.24-1h.69a1.18,1.18,0,0,0,.39.93,1.68,1.68,0,0,0,1.1.35,2.08,2.08,0,0,0,1.17-.31A1.15,1.15,0,0,0,207.13,94.8Z" transform="translate(-5.51 -57.24)"/><path class="cls-2" d="M213.57,94.8c.06-.53-.26-.91-1-1.15l-1-.29c-.91-.31-1.34-.82-1.29-1.54a1.57,1.57,0,0,1,.72-1.26,2.56,2.56,0,0,1,1.61-.48,2.18,2.18,0,0,1,1.48.52,1.57,1.57,0,0,1,.53,1.34H214a1.09,1.09,0,0,0-.35-.91,1.49,1.49,0,0,0-1-.36,1.89,1.89,0,0,0-1.11.31,1.09,1.09,0,0,0-.51.81c-.05.5.25.84.91,1l.72.21.39.13c.87.33,1.28.86,1.23,1.6A1.65,1.65,0,0,1,213.6,96a2.7,2.7,0,0,1-1.55.54h-.24a2.88,2.88,0,0,1-1.13-.24,1.82,1.82,0,0,1-.78-.66,1.57,1.57,0,0,1-.24-1h.69a1.16,1.16,0,0,0,.4.93,1.66,1.66,0,0,0,1.09.35,2.08,2.08,0,0,0,1.17-.31A1.15,1.15,0,0,0,213.57,94.8Z" transform="translate(-5.51 -57.24)"/><path class="cls-2" d="M220.5,96.43h-.7L221.26,88h.7Z" transform="translate(-5.51 -57.24)"/><path class="cls-2" d="M230.06,88.64h-2.78l-1.35,7.79h-.71l1.36-7.79h-2.79l.11-.6h6.27Z" transform="translate(-5.51 -57.24)"/></svg>