<svg xmlns="http://www.w3.org/2000/svg" width="200" height="200" viewBox="0 0 200 200">
  <g id="Group_2358" data-name="Group 2358" transform="translate(-860 -365)">
    <circle id="Ellipse_495" data-name="Ellipse 495" cx="100" cy="100" r="100" transform="translate(860 365)" fill="#eff0f5"/>
    <g id="Group_2303" data-name="Group 2303" transform="translate(-373.5 22.75)">
      <path id="Path_7098" data-name="Path 7098" d="M46.9,43.2a14.037,14.037,0,1,0,14,14A14.007,14.007,0,0,0,46.9,43.2Zm-10.149,14a10.493,10.493,0,0,1,1.719-5.729l14.16,14.16A9.858,9.858,0,0,1,46.9,67.345,10.044,10.044,0,0,1,36.747,57.2Zm18.579,5.729-14.16-14.16A9.858,9.858,0,0,1,46.9,47.047,10.147,10.147,0,0,1,57.045,57.2,9.858,9.858,0,0,1,55.326,62.925Z" transform="translate(1286.482 392.996)" fill="#9aa3ab"/>
      <path id="Path_7099" data-name="Path 7099" d="M72.807,11.5H9.948A7.475,7.475,0,0,0,2.5,18.948V67.156A7.475,7.475,0,0,0,9.948,74.6H72.889a7.475,7.475,0,0,0,7.448-7.448V18.948A7.6,7.6,0,0,0,72.807,11.5ZM9.948,15.347H72.889a3.633,3.633,0,0,1,3.6,3.6v9.412H6.347V18.948A3.58,3.58,0,0,1,9.948,15.347ZM72.807,70.676H9.948a3.633,3.633,0,0,1-3.6-3.6V32.207H76.408V67.074A3.58,3.58,0,0,1,72.807,70.676Z" transform="translate(1292 398.75)" fill="#9aa3ab"/>
      <circle id="Ellipse_497" data-name="Ellipse 497" cx="2.783" cy="2.783" r="2.783" transform="translate(1343.035 417.78)" fill="#9aa3ab"/>
      <circle id="Ellipse_498" data-name="Ellipse 498" cx="2.783" cy="2.783" r="2.783" transform="translate(1351.384 417.78)" fill="#9aa3ab"/>
      <circle id="Ellipse_499" data-name="Ellipse 499" cx="2.783" cy="2.783" r="2.783" transform="translate(1359.733 417.78)" fill="#9aa3ab"/>
      <path id="Path_7100" data-name="Path 7100" d="M14,0a14.037,14.037,0,1,0,14,14A14.007,14.007,0,0,0,14,0ZM3.847,14A10.493,10.493,0,0,1,5.566,8.267l14.16,14.16A9.858,9.858,0,0,1,14,24.145,10.044,10.044,0,0,1,3.847,14Zm18.579,5.729L8.267,5.566A9.858,9.858,0,0,1,14,3.847,10.147,10.147,0,0,1,24.145,14,9.858,9.858,0,0,1,22.426,19.725Z" transform="translate(1347.414 436.237) rotate(90)" fill="#9aa3ab"/>
    </g>
  </g>
</svg>
