<svg xmlns="http://www.w3.org/2000/svg" width="200" height="200" viewBox="0 0 200 200">
  <g id="Group_2346" data-name="Group 2346" transform="translate(-861 -365)">
    <circle id="Ellipse_495" data-name="Ellipse 495" cx="100" cy="100" r="100" transform="translate(861 365)" fill="#eff0f5"/>
    <g id="Group_2281" data-name="Group 2281" transform="translate(-493 -274)">
      <path id="Path_7064" data-name="Path 7064" d="M29.776,43.3H26.908V40.434A1.434,1.434,0,0,0,25.474,39H19.737A1.434,1.434,0,0,0,18.3,40.434V43.3H15.434A1.434,1.434,0,0,0,14,44.737v5.737a1.434,1.434,0,0,0,1.434,1.434H18.3v2.868a1.434,1.434,0,0,0,1.434,1.434h5.737a1.434,1.434,0,0,0,1.434-1.434V51.908h2.868a1.434,1.434,0,0,0,1.434-1.434V44.737A1.434,1.434,0,0,0,29.776,43.3ZM28.342,49.04H25.474a1.434,1.434,0,0,0-1.434,1.434v2.868H21.171V50.474a1.434,1.434,0,0,0-1.434-1.434H16.868V46.171h2.868a1.434,1.434,0,0,0,1.434-1.434V41.868H24.04v2.868a1.434,1.434,0,0,0,1.434,1.434h2.868Z" transform="translate(1413.342 710.5)" fill="#9aa3ab"/>
      <path id="Path_7065" data-name="Path 7065" d="M80.014,1H39.855a4.3,4.3,0,0,0-4.3,4.3V21.079H8.3a1.434,1.434,0,0,0-1.434,1.434V33.987A1.434,1.434,0,0,0,8.3,35.421H9.644a8.3,8.3,0,0,1-2.355,4.723A11.154,11.154,0,0,0,4,48.082V85.619a4.3,4.3,0,0,0,4.3,4.3h37.29a4.3,4.3,0,0,0,4.3-4.3V78.448H80.014a4.3,4.3,0,0,0,4.3-4.3V5.3A4.3,4.3,0,0,0,80.014,1ZM9.737,23.947H44.158v8.605H9.737Zm-.42,18.225a11.158,11.158,0,0,0,3.224-6.751H41.354a11.158,11.158,0,0,0,3.224,6.751,8.3,8.3,0,0,1,2.448,5.91v1.681H6.868V48.082a8.3,8.3,0,0,1,2.448-5.91ZM6.868,75.579V52.632H47.027V75.579ZM49.895,61.5a4.277,4.277,0,0,1,0,8.078Zm-.737-17.4a4.283,4.283,0,0,1,.737,8.271V48.082a11.2,11.2,0,0,0-.737-3.986ZM45.592,87.053H8.3a1.434,1.434,0,0,1-1.434-1.434V78.448H47.027v7.171A1.434,1.434,0,0,1,45.592,87.053Zm4.3-14.486a7.171,7.171,0,0,0,0-14.055V55.357a7.171,7.171,0,0,0-1.434-14.2,7.026,7.026,0,0,0-.919.063,11.227,11.227,0,0,0-.935-1.077,8.3,8.3,0,0,1-2.355-4.723h1.341a1.434,1.434,0,0,0,1.434-1.434V27.094a4.29,4.29,0,1,1,1.434,8.327V38.29a7.171,7.171,0,1,0-1.434-14.182V22.513a1.434,1.434,0,0,0-1.434-1.434H38.421V5.3a1.434,1.434,0,0,1,1.434-1.434H58.5V75.579H49.895Zm31.553,1.578a1.434,1.434,0,0,1-1.434,1.434H61.369V3.868H80.014A1.434,1.434,0,0,1,81.448,5.3Z" transform="translate(1409 694)" fill="#9aa3ab"/>
      <path id="Path_7066" data-name="Path 7066" d="M37.171,5a7.171,7.171,0,1,0,7.171,7.171A7.171,7.171,0,0,0,37.171,5Zm0,11.474a4.3,4.3,0,1,1,4.3-4.3A4.3,4.3,0,0,1,37.171,16.474Z" transform="translate(1420.29 695.737)" fill="#9aa3ab"/>
      <path id="Path_7067" data-name="Path 7067" d="M53.171,5a7.171,7.171,0,1,0,7.171,7.171A7.171,7.171,0,0,0,53.171,5Zm0,11.474a4.3,4.3,0,1,1,4.3-4.3A4.3,4.3,0,0,1,53.171,16.474Z" transform="translate(1427.237 695.737)" fill="#9aa3ab"/>
      <path id="Path_7068" data-name="Path 7068" d="M53.171,17a7.171,7.171,0,1,0,7.171,7.171A7.171,7.171,0,0,0,53.171,17Zm0,11.474a4.3,4.3,0,1,1,4.3-4.3A4.3,4.3,0,0,1,53.171,28.474Z" transform="translate(1427.237 700.947)" fill="#9aa3ab"/>
      <path id="Path_7069" data-name="Path 7069" d="M53.171,29a7.171,7.171,0,1,0,7.171,7.171A7.171,7.171,0,0,0,53.171,29Zm0,11.474a4.3,4.3,0,1,1,4.3-4.3A4.3,4.3,0,0,1,53.171,40.474Z" transform="translate(1427.237 706.158)" fill="#9aa3ab"/>
      <path id="Path_7070" data-name="Path 7070" d="M53.171,41a7.171,7.171,0,1,0,7.171,7.171A7.171,7.171,0,0,0,53.171,41Zm0,11.474a4.3,4.3,0,1,1,4.3-4.3A4.3,4.3,0,0,1,53.171,52.474Z" transform="translate(1427.237 711.369)" fill="#9aa3ab"/>
    </g>
  </g>
</svg>
