<svg xmlns="http://www.w3.org/2000/svg" width="200" height="200" viewBox="0 0 200 200">
  <g id="Group_2354" data-name="Group 2354" transform="translate(-861 -403)">
    <circle id="Ellipse_495" data-name="Ellipse 495" cx="100" cy="100" r="100" transform="translate(861 403)" fill="#eff0f5"/>
    <g id="Group_2353" data-name="Group 2353" transform="translate(910.584 453)">
      <path id="Path_7139" data-name="Path 7139" d="M52.586,20.5H70.25a1.5,1.5,0,0,0,0-3H52.586a1.5,1.5,0,0,0,0,3Z" fill="#9aa3ab"/>
      <path id="Path_7140" data-name="Path 7140" d="M52.586,32.1H70.25a1.5,1.5,0,1,0,0-3H52.586a1.5,1.5,0,0,0,0,3Z" fill="#9aa3ab"/>
      <path id="Path_7141" data-name="Path 7141" d="M70.25,40.7H29.75a1.5,1.5,0,0,0,0,3h40.5a1.5,1.5,0,0,0,0-3Z" fill="#9aa3ab"/>
      <path id="Path_7142" data-name="Path 7142" d="M70.25,52.3H29.75a1.5,1.5,0,0,0,0,3h40.5a1.5,1.5,0,0,0,0-3Z" fill="#9aa3ab"/>
      <path id="Path_7143" data-name="Path 7143" d="M70.25,63.9H29.75a1.5,1.5,0,1,0,0,3h40.5a1.5,1.5,0,1,0,0-3Z" fill="#9aa3ab"/>
      <path id="Path_7144" data-name="Path 7144" d="M56,75.5H29.75a1.5,1.5,0,0,0,0,3H56a1.5,1.5,0,0,0,0-3Z" fill="#9aa3ab"/>
      <path id="Path_7145" data-name="Path 7145" d="M44.181,35.785a1.5,1.5,0,0,0,1.5-1.5V16a1.5,1.5,0,0,0-1.5-1.5H28.9A1.5,1.5,0,0,0,27.4,16V34.285a1.5,1.5,0,0,0,1.5,1.5ZM30.4,17.5H42.68V32.785H30.4Z" fill="#9aa3ab"/>
      <path id="Path_7146" data-name="Path 7146" d="M78.521,5H21.479a4.067,4.067,0,0,0-4.063,4.063V90.938A4.067,4.067,0,0,0,21.479,95H65a1.455,1.455,0,0,0,.459-.08c.023-.007.045-.012.067-.021a1.483,1.483,0,0,0,.4-.233c.011-.009.024-.011.035-.02L82.05,81.083c.016-.013.027-.029.042-.043a1.52,1.52,0,0,0,.112-.115c.031-.035.061-.07.089-.107a1.447,1.447,0,0,0,.079-.124,1.3,1.3,0,0,0,.069-.127c.02-.044.036-.089.053-.134a1.334,1.334,0,0,0,.043-.14c.011-.045.018-.092.025-.138A1.368,1.368,0,0,0,82.578,80c0-.021.006-.04.006-.06V9.063A4.068,4.068,0,0,0,78.521,5Zm-58.1,85.938V9.063A1.064,1.064,0,0,1,21.479,8H78.52a1.064,1.064,0,0,1,1.063,1.063V78.437H65a1.5,1.5,0,0,0-1.5,1.5V92H21.479A1.064,1.064,0,0,1,20.417,90.938Z" fill="#9aa3ab"/>
    </g>
  </g>
</svg>
