<svg xmlns="http://www.w3.org/2000/svg" width="200" height="200" viewBox="0 0 200 200">
  <g id="Group_2363" data-name="Group 2363" transform="translate(-860 -403)">
    <circle id="Ellipse_495" data-name="Ellipse 495" cx="100" cy="100" r="100" transform="translate(860 403)" fill="#eff0f5"/>
    <g id="Group_2362" data-name="Group 2362" transform="translate(-237.807 23.776)">
      <path id="Path_7147" data-name="Path 7147" d="M56.869,56.175H36.316a2.605,2.605,0,1,0,0,5.211H56.869a2.605,2.605,0,1,0,0-5.211Z" transform="translate(1142.631 431.094)" fill="#9aa3ab"/>
      <path id="Path_7148" data-name="Path 7148" d="M111.317,41.153A24.928,24.928,0,0,0,61.6,38.547H31.52a2.606,2.606,0,0,0-2.605,2.605V81.084h-14.5a2.606,2.606,0,0,0-2.605,2.605v9.335a11.211,11.211,0,0,0,11.2,11.2H77.8a.087.087,0,0,0,.026,0c.008,0,.016,0,.026,0A11.21,11.21,0,0,0,89,93.025V65.944A24.962,24.962,0,0,0,111.317,41.153ZM23,99.012a6,6,0,0,1-5.987-5.987v-6.73H66.594v6.73a11.124,11.124,0,0,0,1.74,5.987Zm54.791,0a6,6,0,0,1-5.99-5.987V83.689A2.606,2.606,0,0,0,69.2,81.084H34.125V43.758H61.6a24.689,24.689,0,0,0,1.727,6.83H42.947a2.605,2.605,0,0,0,0,5.211H66.259a25.034,25.034,0,0,0,3.233,3.631H42.947a2.605,2.605,0,1,0,0,5.211H78.062c.016,0,.027,0,.043,0a24.688,24.688,0,0,0,5.676,1.305V93.025A5.993,5.993,0,0,1,77.795,99.012Zm8.6-38.141h-.018a19.722,19.722,0,1,1,.018,0Z" transform="translate(1136 419)" fill="#9aa3ab"/>
      <g id="Group_2361" data-name="Group 2361" transform="translate(1214.497 447.959)">
        <path id="Path_7149" data-name="Path 7149" d="M19.724,30.752H19.1a6.7,6.7,0,0,1-5.888-6.735V9.908a1.3,1.3,0,1,0-2.605,0A1.3,1.3,0,0,1,8,9.908a3.908,3.908,0,1,1,7.816,0V24.017a4.078,4.078,0,0,0,3.517,4.13,3.971,3.971,0,0,0,4.3-3.908v-1.3a1.3,1.3,0,1,1,2.605,0v1.3A6.514,6.514,0,0,1,19.724,30.752Z" transform="translate(-8 -6)" fill="#9aa3ab"/>
        <circle id="Ellipse_500" data-name="Ellipse 500" cx="2.576" cy="2.576" r="2.576" transform="translate(13.316 14.544)" fill="#9aa3ab"/>
        <path id="Path_7150" data-name="Path 7150" d="M20.724,15.605H10.3A1.3,1.3,0,1,1,10.3,13H20.724a1.3,1.3,0,1,1,0,2.605Z" transform="translate(-7.697 -3.881)" fill="#9aa3ab"/>
      </g>
    </g>
  </g>
</svg>
