<svg xmlns="http://www.w3.org/2000/svg" width="200" height="200" viewBox="0 0 200 200">
  <g id="Group_2394" data-name="Group 2394" transform="translate(-901 -403)">
    <circle id="Ellipse_495" data-name="Ellipse 495" cx="100" cy="100" r="100" transform="translate(901 403)" fill="#eff0f5"/>
    <g id="Group_2393" data-name="Group 2393" transform="translate(949 455)">
      <path id="Path_7159" data-name="Path 7159" d="M101.22,8H69.268a1.682,1.682,0,0,0-1.682,1.682v5.045H62.541a1.682,1.682,0,0,0-1.682,1.682V35.549L48.69,41.634H3.682A1.682,1.682,0,0,0,2,43.315V87.039a1.682,1.682,0,0,0,1.682,1.682H37.315A1.682,1.682,0,0,0,39,87.039V82.3l18.221,3.037a1.717,1.717,0,0,0,.277.024H82.721a6.7,6.7,0,0,0,5.792-3.363h5.98a1.682,1.682,0,0,0,1.682-1.682V75.268h5.045a1.682,1.682,0,0,0,1.682-1.682V9.682A1.682,1.682,0,0,0,101.22,8Zm-37,10.09H92.811V41.634H89.448V26.5a1.682,1.682,0,0,0-1.682-1.682,1.682,1.682,0,0,1-1.682-1.682A1.682,1.682,0,0,0,84.4,21.454H72.631a1.682,1.682,0,0,0-1.682,1.682,1.682,1.682,0,0,1-1.682,1.682A1.682,1.682,0,0,0,67.586,26.5V41.634H64.223ZM86.084,41.634H70.949V27.893a5.072,5.072,0,0,0,3.076-3.076h8.984a5.072,5.072,0,0,0,3.076,3.076ZM35.634,85.358H5.363V45h30.27Zm43.724-10.09h3.363a3.363,3.363,0,0,1,0,6.727H57.635L39,78.888V45h10.09a1.682,1.682,0,0,0,.752-.177l11.02-5.511v4.006A1.682,1.682,0,0,0,62.541,45h30.27a3.363,3.363,0,0,1,0,6.727H86.084a1.682,1.682,0,1,0,0,3.363h3.363a3.363,3.363,0,1,1,0,6.727H82.721a1.682,1.682,0,1,0,0,3.363h3.363a3.363,3.363,0,0,1,0,6.727H79.358a1.682,1.682,0,0,0,0,3.363Zm13.454,3.363H89.448a6.7,6.7,0,0,0-1.138-3.742A6.727,6.727,0,0,0,91.673,64.8a6.6,6.6,0,0,0,1.138-.54Zm6.727-30.27V71.9H96.175V54.169a6.683,6.683,0,0,0,0-11.6V16.408a1.682,1.682,0,0,0-1.682-1.682H70.949V11.363H99.538Z" fill="#9aa3ab"/>
      <path id="Path_7160" data-name="Path 7160" d="M18.727,44a6.727,6.727,0,1,0,6.727,6.727A6.727,6.727,0,0,0,18.727,44Zm0,10.09a3.363,3.363,0,1,1,3.363-3.363A3.363,3.363,0,0,1,18.727,54.09Z" transform="translate(6.817 24.541)" fill="#9aa3ab"/>
    </g>
  </g>
</svg>
