<svg xmlns="http://www.w3.org/2000/svg" width="200" height="200" viewBox="0 0 200 200">
  <g id="Group_2345" data-name="Group 2345" transform="translate(-860 -403)">
    <circle id="Ellipse_495" data-name="Ellipse 495" cx="100" cy="100" r="100" transform="translate(860 403)" fill="#eff0f5"/>
    <g id="Group_2274" data-name="Group 2274" transform="translate(904 -504.362)">
      <path id="Path_7053" data-name="Path 7053" d="M38.693,964.362a2.309,2.309,0,0,0-1.359.608L20.163,981a2.32,2.32,0,0,0-.715,1.681v9.158a2.379,2.379,0,0,0-2.289,2.29v2.289H10.075A2.372,2.372,0,0,0,8,998.7v50.368a2.379,2.379,0,0,0,2.289,2.29l38.921-.071A2.379,2.379,0,0,0,51.5,1049v-6.8h50.368a2.379,2.379,0,0,0,2.289-2.289V982.678a2.32,2.32,0,0,0-.715-1.681L86.271,964.971a2.315,2.315,0,0,0-1.574-.609Zm1.109,4.579h44l3.685,3.434H74.395q-.107-.005-.215,0a2.292,2.292,0,1,0,.215,4.579H92.389l3.685,3.434H27.532l3.685-3.434H49.211a2.29,2.29,0,1,0,0-4.579H36.118ZM24.026,984.967H99.579v52.658H51.5V998.7a2.379,2.379,0,0,0-2.289-2.29H42.342v-2.289a2.379,2.379,0,0,0-2.289-2.289H36.9a7.972,7.972,0,0,0-7.155-4.579,7.812,7.812,0,0,0-5.724,2.5Zm5.724,6.868a3.417,3.417,0,0,1,3.363,2.755,2.363,2.363,0,0,0,2.254,1.824h2.4v2.29H21.737v-2.29h2.4a2.363,2.363,0,0,0,2.254-1.824A3.417,3.417,0,0,1,29.75,991.836Zm-17.171,9.158h4.579a2.379,2.379,0,0,0,2.289,2.29H40.053a2.379,2.379,0,0,0,2.289-2.29h4.579v5.724H12.579Zm0,10.3H46.921v35.415l-34.342.071V1011.3Zm5.509,5.724a2.292,2.292,0,1,0,.215,4.579H41.2a2.29,2.29,0,1,0,0-4.579Zm0,9.158a2.292,2.292,0,1,0,.215,4.579H41.2a2.29,2.29,0,1,0,0-4.579Zm0,9.158a2.292,2.292,0,0,0,.215,4.579H34.329a2.29,2.29,0,1,0,0-4.579H18.088Z" transform="translate(0 0)" fill="#9aa3ab"/>
    </g>
  </g>
</svg>
