<svg xmlns="http://www.w3.org/2000/svg" width="200" height="200" viewBox="0 0 200 200">
  <g id="Group_2365" data-name="Group 2365" transform="translate(-860 -403)">
    <circle id="Ellipse_495" data-name="Ellipse 495" cx="100" cy="100" r="100" transform="translate(860 403)" fill="#eff0f5"/>
    <g id="Group_2364" data-name="Group 2364" transform="translate(885.602 423.702)">
      <path id="Path_7151" data-name="Path 7151" d="M201.452,377.1a8.052,8.052,0,1,0,8.052,8.052A8.073,8.073,0,0,0,201.452,377.1Zm0,11.606a3.554,3.554,0,1,1,3.554-3.554A3.561,3.561,0,0,1,201.452,388.706Z" transform="translate(-133.314 -270.348)" fill="#9aa3ab"/>
      <path id="Path_7152" data-name="Path 7152" d="M123.987,93.977l-41.611,13.7a15.88,15.88,0,0,0-17-8.547L45.4,38.487A11.238,11.238,0,0,0,36.963,31L24.1,28.343a2.25,2.25,0,0,0-.9,4.409l12.866,2.632a6.762,6.762,0,0,1,5.061,4.5L61.1,100.5a15.924,15.924,0,1,0,22.965,14.283,15.235,15.235,0,0,0-.27-2.879l41.589-13.675a2.262,2.262,0,0,0,1.44-2.834A2.231,2.231,0,0,0,123.987,93.977ZM68.138,126.231A11.426,11.426,0,1,1,79.564,114.8,11.442,11.442,0,0,1,68.138,126.231Z" fill="#9aa3ab"/>
      <path id="Path_7153" data-name="Path 7153" d="M198.015,98.683a2.353,2.353,0,0,0,.09.382,1.741,1.741,0,0,0,.157.36l9,27.351a7.434,7.434,0,0,0,3.756,4.364,7.545,7.545,0,0,0,3.4.81,7.745,7.745,0,0,0,2.362-.382l36.55-12.034a7.54,7.54,0,0,0,4.791-9.514L246.644,75.179a7.434,7.434,0,0,0-3.756-4.364,7.534,7.534,0,0,0-5.758-.427l-36.55,12.034a7.434,7.434,0,0,0-4.364,3.756,7.534,7.534,0,0,0-.427,5.758Zm53.892,16.577-36.55,12.034a3.036,3.036,0,0,1-3.824-1.934L203.12,99.786l42.309-13.923,8.412,25.574A3.051,3.051,0,0,1,251.907,115.26ZM202,86.695l36.55-12.034a2.776,2.776,0,0,1,.945-.157,2.947,2.947,0,0,1,1.372.337A2.983,2.983,0,0,1,242.37,76.6l1.642,4.993L201.7,95.512l-1.642-4.993A3.006,3.006,0,0,1,202,86.695Z" transform="translate(-134.87 -32.328)" fill="#9aa3ab"/>
    </g>
  </g>
</svg>
