<svg xmlns="http://www.w3.org/2000/svg" width="200" height="200" viewBox="0 0 200 200">
  <g id="Group_2320" data-name="Group 2320" transform="translate(-859 -366)">
    <circle id="Ellipse_495" data-name="Ellipse 495" cx="100" cy="100" r="100" transform="translate(859 366)" fill="#eff0f5"/>
    <path id="Path_7121" data-name="Path 7121" d="M88.721,94.369H9.648A5.654,5.654,0,0,1,4,88.721V82.626A16.969,16.969,0,0,1,16.578,66.25l15.143-4.037a67.913,67.913,0,0,1,34.925,0L81.79,66.25A16.969,16.969,0,0,1,94.369,82.626v6.095a5.654,5.654,0,0,1-5.648,5.648Zm0-5.648v2.824l.006-2.824ZM49.184,65.577a62.176,62.176,0,0,0-16.005,2.1L18.034,71.71A11.3,11.3,0,0,0,9.648,82.626v6.095H88.721V82.626A11.3,11.3,0,0,0,80.334,71.71L65.191,67.673a62.163,62.163,0,0,0-16.007-2.1Zm0-16.393A22.592,22.592,0,1,1,71.776,26.592,22.592,22.592,0,0,1,49.184,49.184Zm0-39.536A16.944,16.944,0,1,0,66.128,26.592,16.944,16.944,0,0,0,49.184,9.648Zm28.24,70.6A2.822,2.822,0,0,0,74.6,77.425H63.3a2.824,2.824,0,0,0,0,5.648H74.6a2.822,2.822,0,0,0,2.824-2.824Z" transform="translate(910 417)" fill="#9aa3ab"/>
  </g>
</svg>
