<svg xmlns="http://www.w3.org/2000/svg" width="200" height="200" viewBox="0 0 200 200">
  <g id="Group_2323" data-name="Group 2323" transform="translate(-1068 -365)">
    <circle id="Ellipse_495" data-name="Ellipse 495" cx="100" cy="100" r="100" transform="translate(1068 365)" fill="#eff0f5"/>
    <path id="Path_7123" data-name="Path 7123" d="M9.4.529A8.918,8.918,0,0,0,.529,9.4V77.416a11.829,11.829,0,1,0,23.657,0V74.459A3.463,3.463,0,0,1,27.144,71.5H80.373a3.463,3.463,0,0,1,2.957,2.957v2.957a5.838,5.838,0,0,1-5.914,5.914H33.058c-4-.057-4,5.971,0,5.914H77.416A11.868,11.868,0,0,0,89.245,77.416V74.459a9.3,9.3,0,0,0-8.872-8.872H77.416V9.4A8.918,8.918,0,0,0,68.544.529Zm0,5.914H68.544A2.888,2.888,0,0,1,71.5,9.4V65.587H27.144A8.722,8.722,0,0,0,20.987,68.3a8.723,8.723,0,0,0-2.715,6.157v2.957a5.838,5.838,0,0,1-5.914,5.914,5.838,5.838,0,0,1-5.914-5.914V9.4A2.888,2.888,0,0,1,9.4,6.444ZM21.224,18.275c-3.945,0-3.945,5.917,0,5.917H38.973c3.945,0,3.945-5.917,0-5.917Zm29.581,0c-3.945,0-3.945,5.917,0,5.917h5.914c3.945,0,3.945-5.917,0-5.917ZM21.224,30.1c-3.945,0-3.945,5.917,0,5.917H33.055c3.945,0,3.945-5.917,0-5.917Zm0,11.832c-3.945,0-3.945,5.917,0,5.917H38.973c3.945,0,3.945-5.917,0-5.917Zm29.581,0c-3.945,0-3.945,5.917,0,5.917h5.914c3.945,0,3.945-5.917,0-5.917ZM21.224,53.758c-3.945,0-3.945,5.917,0,5.917H33.055c3.945,0,3.945-5.917,0-5.917Z" transform="translate(1123.471 420.471)" fill="#9aa3ab" fill-rule="evenodd"/>
  </g>
</svg>
