<svg xmlns="http://www.w3.org/2000/svg" width="200" height="200" viewBox="0 0 200 200">
  <g id="Group_2352" data-name="Group 2352" transform="translate(-141 -468)">
    <circle id="Ellipse_495" data-name="Ellipse 495" cx="100" cy="100" r="100" transform="translate(141 468)" fill="#eff0f5"/>
    <g id="Group_2321" data-name="Group 2321" transform="translate(190.5 517.7)">
      <path id="Path_7122" data-name="Path 7122" d="M72.6,13.6V6.3H67v7.4H33V6.3H27.4v7.4H2.5V93.8h95V13.6ZM27.4,19.2v7.4H33V19.2H67v7.4h5.6V19.2H91.9V34.4H8.1V19.2ZM8.1,88.1V40H91.9V88.2H8.1Z" fill="#9aa3ab"/>
      <rect id="Rectangle_2586" data-name="Rectangle 2586" width="12.8" height="5.6" transform="translate(43.6 52.3)" fill="#9aa3ab"/>
      <rect id="Rectangle_2587" data-name="Rectangle 2587" width="12.8" height="5.6" transform="translate(20.2 52.3)" fill="#9aa3ab"/>
      <rect id="Rectangle_2588" data-name="Rectangle 2588" width="12.8" height="5.6" transform="translate(67 52.3)" fill="#9aa3ab"/>
      <rect id="Rectangle_2589" data-name="Rectangle 2589" width="12.8" height="5.6" transform="translate(43.6 70.2)" fill="#9aa3ab"/>
      <rect id="Rectangle_2590" data-name="Rectangle 2590" width="12.8" height="5.6" transform="translate(20.2 70.2)" fill="#9aa3ab"/>
      <rect id="Rectangle_2591" data-name="Rectangle 2591" width="12.8" height="5.6" transform="translate(67 70.2)" fill="#9aa3ab"/>
    </g>
  </g>
</svg>
