<svg xmlns="http://www.w3.org/2000/svg" width="200" height="200" viewBox="0 0 200 200">
  <g id="Group_2416" data-name="Group 2416" transform="translate(-901 -403)">
    <circle id="Ellipse_495" data-name="Ellipse 495" cx="100" cy="100" r="100" transform="translate(901 403)" fill="#eff0f5"/>
    <g id="Group_2415" data-name="Group 2415" transform="translate(-403.221 24)">
      <g id="Group_2406" data-name="Group 2406" transform="translate(1385.772 425.001)">
        <g id="Group_2405" data-name="Group 2405" transform="translate(0 0)">
          <path id="Path_7169" data-name="Path 7169" d="M329.87,25.336V60.957l2.687-1.542L324.5,54.938l-3.864-2.147a2.055,2.055,0,0,0-2.118-.1l-1.145.636-10.965,6.091,2.687,1.542V25.336l-1.786,1.786h24.348a1.786,1.786,0,0,0,0-3.571H307.307a1.8,1.8,0,0,0-1.786,1.786V60.957a1.8,1.8,0,0,0,2.687,1.542l12.174-6.763h-1.8L330.754,62.5a1.8,1.8,0,0,0,2.687-1.542V25.336a1.786,1.786,0,1,0-3.571,0Z" transform="translate(-305.521 -23.55)" fill="#9aa3ab"/>
        </g>
      </g>
      <g id="Group_2408" data-name="Group 2408" transform="translate(1363.002 486.549)">
        <g id="Group_2407" data-name="Group 2407">
          <path id="Path_7170" data-name="Path 7170" d="M128.788,509.651h11.949a1.786,1.786,0,1,0,0-3.571H128.788a1.786,1.786,0,0,0,0,3.571Z" transform="translate(-127.002 -506.08)" fill="#9aa3ab"/>
        </g>
      </g>
      <g id="Group_2410" data-name="Group 2410" transform="translate(1363.002 500.076)">
        <g id="Group_2409" data-name="Group 2409">
          <path id="Path_7171" data-name="Path 7171" d="M128.788,615.7h34.493a1.786,1.786,0,1,0,0-3.571H128.788a1.786,1.786,0,1,0,0,3.571Z" transform="translate(-127.002 -612.132)" fill="#9aa3ab"/>
        </g>
      </g>
      <g id="Group_2412" data-name="Group 2412" transform="translate(1347.22 425)">
        <g id="Group_2411" data-name="Group 2411" transform="translate(0)">
          <path id="Path_7172" data-name="Path 7172" d="M104.725,36.824V86.581l3.048-1.263A26.576,26.576,0,0,0,67.3,118.21l1.542-2.687H16.56c-.18,0-.36-.005-.54-.012s-.353-.022-.53-.036q-.175-.016-.349-.038.279.037-.043-.012a11.412,11.412,0,0,1-1.99-.525c-.023-.008-.542-.213-.2-.07-.155-.066-.308-.138-.46-.211a11.5,11.5,0,0,1-1.029-.566c-.286-.174-.559-.366-.829-.564.292.214-.141-.118-.161-.135-.128-.106-.252-.218-.376-.33-.247-.223-.48-.463-.707-.706-.114-.122-.222-.249-.33-.376q-.107-.128-.211-.258.164.212-.023-.037a11.5,11.5,0,0,1-1.032-1.723c-.075-.151-.143-.306-.211-.46.148.336-.061-.179-.07-.2a11.4,11.4,0,0,1-.348-1.144c-.086-.336-.149-.676-.2-1.018.061.376-.019-.194-.022-.221-.018-.176-.027-.353-.036-.53s-.012-.378-.012-.567V36.825a9.1,9.1,0,0,1,.682-3.609c.193-.519-.144.307.079-.2.068-.154.143-.305.217-.456.149-.3.317-.592.492-.878s.366-.559.564-.829c-.214.291.118-.141.135-.161.142-.171.292-.335.443-.5.227-.244.47-.473.717-.7.124-.112.252-.218.38-.324.42-.348-.272.2.167-.128a11.509,11.509,0,0,1,1.875-1.1c.024-.011.534-.226.194-.088.157-.064.317-.121.477-.177.322-.114.652-.207.983-.292s.676-.149,1.018-.2c-.376.061.194-.019.221-.022.235-.023.472-.034.708-.043.167-.006.335-.005.5-.005H95.013c.356,0,.711.019,1.066.049.027,0,.6.077.221.022.172.025.343.058.513.091.338.065.671.153,1,.248.164.047.326.1.487.157.059.02.682.261.364.127a9.947,9.947,0,0,1,5.367,5.367c-.148-.336.061.18.07.2.059.16.111.322.163.484.105.327.188.661.263,1,.038.169.068.34.1.51.1.561-.034-.352.032.218a11.683,11.683,0,0,1,.066,1.241,1.786,1.786,0,1,0,3.571,0A13.41,13.41,0,0,0,97.421,23.766a25,25,0,0,0-4.412-.226H16.886A13.32,13.32,0,0,0,3.273,36.827v67.945a14.734,14.734,0,0,0,2.138,8.266,13.537,13.537,0,0,0,11.483,6.058H68.843a1.805,1.805,0,0,0,1.542-2.687,23.157,23.157,0,0,1-2.613-10.662,22.072,22.072,0,0,1,1.507-8.229c.059-.159.122-.317.184-.476.009-.022.224-.538.08-.2.133-.311.275-.618.421-.923.314-.659.664-1.3,1.035-1.928.341-.578.711-1.138,1.1-1.686a14.857,14.857,0,0,1,1.164-1.48A24.967,24.967,0,0,1,76.239,87.9a15.073,15.073,0,0,1,1.372-1.033c.6-.415,1.216-.8,1.847-1.159.439-.251.888-.484,1.341-.708.2-.1.406-.195.611-.289l.309-.138a1,1,0,0,1,.2-.084,24.607,24.607,0,0,1,2.912-.978c.5-.136,1.006-.25,1.513-.354.227-.046.455-.087.684-.127l.344-.057c.025,0,.595-.085.218-.035A25.212,25.212,0,0,1,91,82.74a22.836,22.836,0,0,1,14.243,5.1,1.863,1.863,0,0,0,1.737.459,1.8,1.8,0,0,0,1.311-1.722V36.824a1.786,1.786,0,1,0-3.571,0Z" transform="translate(-3.273 -23.539)" fill="#9aa3ab"/>
        </g>
      </g>
      <g id="Group_2414" data-name="Group 2414" transform="translate(1408.159 480.63)">
        <g id="Group_2413" data-name="Group 2413">
          <path id="Path_7173" data-name="Path 7173" d="M530.611,486.256q0,1.072-.091,2.139c-.029.351-.069.7-.112,1.051.047-.377-.031.193-.035.219-.035.23-.076.458-.118.687a24.607,24.607,0,0,1-1.151,4.134c-.059.159-.122.317-.184.476-.009.022-.224.538-.08.2-.133.311-.275.618-.421.923-.314.659-.664,1.3-1.035,1.928-.341.578-.711,1.138-1.1,1.686a14.851,14.851,0,0,1-1.164,1.48A22.849,22.849,0,0,1,511.185,509c-.172.029-.345.054-.518.08.376-.055-.2.023-.222.026-.351.041-.7.071-1.055.1-.789.059-1.58.072-2.371.057a19.953,19.953,0,0,1-4.441-.542c-.729-.162-1.447-.365-2.158-.593-.353-.113-.7-.238-1.048-.366-.173-.064-.344-.132-.516-.2q-.3-.124-.084-.031l-.337-.147a24.763,24.763,0,0,1-3.977-2.229,22.282,22.282,0,0,1-3.247-2.747,20.9,20.9,0,0,1-2.7-3.291,22.8,22.8,0,0,1-3.842-14.817c.026-.352.064-.7.1-1.053.068-.573-.053.35.03-.22.025-.173.054-.345.083-.517.124-.74.29-1.472.481-2.2.175-.662.384-1.315.613-1.959.114-.321.238-.637.365-.953.209-.518-.138.313.084-.2.09-.207.185-.411.28-.616a24.8,24.8,0,0,1,2.109-3.63c.191-.275.391-.544.593-.811-.219.289.118-.146.133-.165.1-.13.211-.259.318-.387.464-.556.956-1.087,1.466-1.6.471-.474.965-.924,1.473-1.359.254-.217.514-.427.776-.634-.284.224.152-.112.171-.126.179-.134.361-.263.543-.391a24.785,24.785,0,0,1,3.63-2.109c.153-.073.307-.142.461-.212.022-.01.534-.23.2-.088.314-.131.631-.253.949-.371.7-.258,1.4-.477,2.12-.671.668-.181,1.345-.327,2.026-.451.172-.031.344-.059.516-.087.025,0,.595-.085.219-.035.408-.054.818-.093,1.228-.127a25.206,25.206,0,0,1,5.076.117,23.074,23.074,0,0,1,19.6,19.042,15.558,15.558,0,0,1,.215,1.724c.059.68.081,1.364.084,2.047a1.786,1.786,0,1,0,3.571,0A26.572,26.572,0,0,0,490.41,466a26.48,26.48,0,0,0-8.8,14.7,26.58,26.58,0,1,0,52.572,5.556,1.786,1.786,0,0,0-3.572,0Z" transform="translate(-481.037 -459.679)" fill="#9aa3ab"/>
        </g>
      </g>
      <g id="Layer_46" data-name="Layer 46" transform="translate(1424.364 496.801)">
        <path id="Path_7174" data-name="Path 7174" d="M20.213,18.369l8.152-8.152A1.3,1.3,0,0,0,26.538,8.39l-8.152,8.152L10.234,8.377a1.3,1.3,0,0,0-1.84,1.84l8.165,8.152L8.393,26.521a1.3,1.3,0,1,0,1.827,1.827L18.386,20.2l8.152,8.152a1.3,1.3,0,0,0,1.827-1.827Z" transform="translate(-7.94 -7.996)" fill="#9aa3ab" stroke="#9aa3ab" stroke-width="1"/>
      </g>
    </g>
  </g>
</svg>
