<svg xmlns="http://www.w3.org/2000/svg" width="200" height="200" viewBox="0 0 200 200">
  <g id="Group_2339" data-name="Group 2339" transform="translate(-861 -403)">
    <circle id="Ellipse_495" data-name="Ellipse 495" cx="100" cy="100" r="100" transform="translate(861 403)" fill="#eff0f5"/>
    <g id="Group_2338" data-name="Group 2338" transform="translate(-377 -105)">
      <path id="Path_7133" data-name="Path 7133" d="M49.957,0C24.978,0,0,6.432,0,18.734V62.446c0,7.65,10.054,13.8,27.57,16.892l1.093-6.245C12.208,70.283,6.245,65.162,6.245,62.446v-12.3c7.119,4.777,19.265,7.525,30.942,8.618l.562-6.245c-21.481-1.967-31.5-8.274-31.5-11.927v-12.3c8.992,6.057,26.415,9.18,43.712,9.18s34.72-3.122,43.712-9.18v6.057h6.245V18.734C99.914,6.432,74.935,0,49.957,0Zm0,31.223c-26.7,0-43.712-7.4-43.712-12.489S23.261,6.245,49.957,6.245s43.712,7.4,43.712,12.489S76.653,31.223,49.957,31.223Z" transform="translate(1288 558)" fill="#9aa3ab"/>
      <path id="Path_7134" data-name="Path 7134" d="M42.1,14A28.1,28.1,0,1,0,70.2,42.1,28.1,28.1,0,0,0,42.1,14Zm0,49.957A21.856,21.856,0,1,1,63.957,42.1,21.856,21.856,0,0,1,42.1,63.957Z" transform="translate(1317.712 587.713)" fill="#9aa3ab"/>
      <g id="Group_2337" data-name="Group 2337" transform="translate(1355.765 617.992)">
        <path id="Path_7136" data-name="Path 7136" d="M37.87,31.569a1.7,1.7,0,0,0,1.719-1.449c2.329-13.555,2.329-13.762,2.329-13.85a4.05,4.05,0,0,0-8.1,0c0,.087,0,.291,2.329,13.85A1.7,1.7,0,0,0,37.87,31.569Z" transform="translate(-33.822 -12.354)" fill="#9aa3ab"/>
        <path id="Path_7137" data-name="Path 7137" d="M42.37,67.417H41.106a1.222,1.222,0,0,0-1.22,1.22V69.9a1.222,1.222,0,0,0,1.22,1.22H42.37a1.222,1.222,0,0,0,1.22-1.22V68.637A1.222,1.222,0,0,0,42.37,67.417Z" transform="translate(-37.69 -47.478)" fill="#9aa3ab"/>
      </g>
    </g>
  </g>
</svg>
