<svg xmlns="http://www.w3.org/2000/svg" width="200" height="200" viewBox="0 0 200 200">
  <g id="Group_2344" data-name="Group 2344" transform="translate(-860 -365)">
    <circle id="Ellipse_495" data-name="Ellipse 495" cx="100" cy="100" r="100" transform="translate(860 365)" fill="#eff0f5"/>
    <g id="Group_2258" data-name="Group 2258" transform="translate(906.5 415.893)">
      <path id="Path_7048" data-name="Path 7048" d="M103.232,47.679l-24-41.572a2,2,0,0,0-1.732-1h-48a2,2,0,0,0-1.732,1l-24,41.572a2,2,0,0,0,0,2l24,41.572a2,2,0,0,0,1.732,1h48a2,2,0,0,0,1.732-1l24-41.572A2,2,0,0,0,103.232,47.679ZM76.344,88.251H30.656L7.808,48.679,30.656,9.107H76.344L99.192,48.679Z" transform="translate(0 0)" fill="#9aa3ab"/>
      <path id="Path_7049" data-name="Path 7049" d="M19.241,27.981A8.741,8.741,0,1,0,10.5,19.244a8.741,8.741,0,0,0,8.741,8.737Zm0-13.445a4.707,4.707,0,1,1-4.707,4.707,4.707,4.707,0,0,1,4.707-4.707Z" transform="translate(20.95 16.131)" fill="#9aa3ab"/>
      <path id="Path_7050" data-name="Path 7050" d="M25.907,17.167A8.741,8.741,0,1,0,34.648,25.9,8.741,8.741,0,0,0,25.907,17.167Zm0,13.445A4.707,4.707,0,1,1,30.615,25.9,4.707,4.707,0,0,1,25.907,30.612Z" transform="translate(40.901 36.079)" fill="#9aa3ab"/>
      <path id="Path_7051" data-name="Path 7051" d="M54.263,10.2a2.017,2.017,0,0,0-2.848.113l-40.338,43.7a2.017,2.017,0,1,0,2.961,2.735l40.338-43.7A2.017,2.017,0,0,0,54.263,10.2Z" transform="translate(20.774 13.498)" fill="#9aa3ab"/>
    </g>
  </g>
</svg>
