<svg xmlns="http://www.w3.org/2000/svg" width="200" height="200" viewBox="0 0 200 200">
  <g id="Group_2292" data-name="Group 2292" transform="translate(-860 -403)">
    <circle id="Ellipse_495" data-name="Ellipse 495" cx="100" cy="100" r="100" transform="translate(860 403)" fill="#eff0f5"/>
    <g id="Group_2289" data-name="Group 2289" transform="translate(-450.593 22.359)">
      <g id="Group_2291" data-name="Group 2291" transform="translate(1366 431)">
        <path id="Path_7079" data-name="Path 7079" d="M86.406,63.747V26.558a1.683,1.683,0,0,0-.827-1.449L48.559,3.234a1.683,1.683,0,0,0-1.713,0L9.826,25.11c-.035.02-.061.05-.094.074s-.066.05-.1.077a1.657,1.657,0,0,0-.372.411c0,.012-.02.019-.027.03v.012a1.683,1.683,0,0,0-.19.55,1.489,1.489,0,0,1-.02.148A1.472,1.472,0,0,0,9,26.558V70.31a1.683,1.683,0,0,0,.827,1.449l37.02,21.875a1.372,1.372,0,0,0,.136.057,1.323,1.323,0,0,0,.141.061,1.5,1.5,0,0,0,1.158,0,1.349,1.349,0,0,0,.143-.061c.044-.02.091-.032.135-.057L58.607,87.7a20.184,20.184,0,1,0,27.8-23.949ZM47.7,6.637l8.75,5.171L43.479,19.474a1.684,1.684,0,1,0,1.713,2.9l14.571-8.6,8.75,5.171L34.8,38.856l-8.75-5.171,20.04-11.769c.8-.473.473-1.166,0-1.966A1.5,1.5,0,0,0,44,19.183L22.743,31.73l-8.752-5.171Zm-23.277,30,8.693,5.137V53.008L24.426,47.87Zm24.96,52.6V76.385c0-.929-1.61-5.658-2.539-5.658s-.826,12.115-.826,13.045v5.466L12.365,69.351V29.508l8.695,5.137V48.83a1.683,1.683,0,0,0,.826,1.451l12.059,7.126a1.683,1.683,0,0,0,2.539-1.449v-12.2l9.536,5.635v26c0,.929-.273,9.332.656,9.332s2.709-6.761,2.709-7.691V49.395L83.04,29.221c.8-.473.473-.9,0-1.7s-.772-1.661-1.573-1.188L47.7,46.48l-9.592-5.669L71.823,20.889,83.04,27.518V62.569A20.164,20.164,0,0,0,57.91,84.2Zm28.607,9.679A16.827,16.827,0,1,1,94.82,82.089,16.827,16.827,0,0,1,77.992,98.916Z" transform="translate(-9 -3)" fill="#9aa3ab"/>
        <g id="Group_2288" data-name="Group 2288" transform="translate(62.643 72.74)">
          <path id="Path_7080" data-name="Path 7080" d="M49.035,52.855a1.778,1.778,0,1,0-2.515,2.514l2.667,2.667a1.778,1.778,0,0,0,2.514,0l8-8a1.778,1.778,0,1,0-2.515-2.515l-6.744,6.745Z" transform="translate(-46 -47)" fill="#9aa3ab"/>
        </g>
      </g>
    </g>
  </g>
</svg>
