<svg xmlns="http://www.w3.org/2000/svg" width="200" height="200" viewBox="0 0 200 200">
  <g id="Group_2355" data-name="Group 2355" transform="translate(-860 -403)">
    <circle id="Ellipse_495" data-name="Ellipse 495" cx="100" cy="100" r="100" transform="translate(860 403)" fill="#eff0f5"/>
    <g id="Group_2327" data-name="Group 2327" transform="translate(912.079 452.777)">
      <path id="Path_7124" data-name="Path 7124" d="M81.944,9.223H14.421a1.5,1.5,0,0,0-1.5,1.5V56.36a1.5,1.5,0,0,0,1.5,1.5H35.765a1.5,1.5,0,0,0,0-3H15.921V12.223H80.444V56.36a1.5,1.5,0,0,0,3,0V10.723A1.5,1.5,0,0,0,81.944,9.223Z" fill="#9aa3ab"/>
      <path id="Path_7125" data-name="Path 7125" d="M74.879,53.134a5.855,5.855,0,0,0-2.307,0,5.919,5.919,0,0,0-1.889.719,6.275,6.275,0,0,0-5.029-5.479,1.454,1.454,0,0,0-.287-.028H63.533a1.512,1.512,0,0,0-.285.027,6.2,6.2,0,0,0-2.188.883,6.268,6.268,0,0,0-9.413-4.1v-6.7a6.267,6.267,0,0,0-12.533,0V62.416l-2.538-2.538a5.42,5.42,0,0,0-9.251,3.832,5.312,5.312,0,0,0,1.522,3.763L39.327,79.36c.738,1.7,5.19,11.05,14.044,12.246a21.244,21.244,0,0,0,2.832.232h9.812c.053,0,.105,0,.157-.008,8.234-.869,13.555-7.26,13.555-16.283V59.022A6.006,6.006,0,0,0,74.879,53.134ZM76.73,75.549c0,7.467-4.133,12.553-10.793,13.291H56.206a18.455,18.455,0,0,1-2.432-.205c-7.792-1.052-11.729-10.548-11.767-10.642a1.464,1.464,0,0,0-.267-.432L31.035,65.422A2.419,2.419,0,0,1,34.458,62l5.1,5.1a1.5,1.5,0,0,0,2.561-1.061V38.456a3.267,3.267,0,0,1,6.533,0V59.8a1.5,1.5,0,0,0,3,0V50.5a3.269,3.269,0,0,1,6.538,0V60.562a1.5,1.5,0,0,0,3,0V54.435a3.275,3.275,0,0,1,2.506-3.089h1.518a3.268,3.268,0,0,1,2.51,3.174v8.687a1.5,1.5,0,0,0,3,0v-4.19c0-.024,0-.048,0-.072a3.01,3.01,0,0,1,2.424-2.866,2.831,2.831,0,0,1,1.156,0,3.005,3.005,0,0,1,2.428,2.943V75.549Z" fill="#9aa3ab"/>
      <path id="Path_7126" data-name="Path 7126" d="M54.156,43.047a1.5,1.5,0,0,0,2-.713,13.135,13.135,0,0,0,1.27-5.669A13.265,13.265,0,1,0,35.457,46.679a1.5,1.5,0,0,0,1.969-2.264A10.261,10.261,0,1,1,53.443,41.05,1.5,1.5,0,0,0,54.156,43.047Z" fill="#9aa3ab"/>
    </g>
  </g>
</svg>
