<svg xmlns="http://www.w3.org/2000/svg" width="200" height="200" viewBox="0 0 200 200">
  <g id="Group_2348" data-name="Group 2348" transform="translate(-860 -403)">
    <circle id="Ellipse_495" data-name="Ellipse 495" cx="100" cy="100" r="100" transform="translate(860 403)" fill="#eff0f5"/>
    <path id="Path_7093" data-name="Path 7093" d="M76.547,45.791,83.3,39.037A22.867,22.867,0,1,0,50.964,6.7L28.831,28.831,6.7,50.964A22.866,22.866,0,1,0,39.036,83.3l6.754-6.755A23.173,23.173,0,1,0,76.547,45.791ZM53.792,9.526A18.867,18.867,0,0,1,80.474,36.208l-8.111,8.11A23.116,23.116,0,0,0,51.918,49.09L33.073,30.245ZM36.208,80.474A18.867,18.867,0,0,1,9.526,53.792L30.245,33.073,49.09,51.918a23.116,23.116,0,0,0-4.772,20.445ZM47.645,66.822A19.2,19.2,0,0,1,64.823,47.75V85.894A19.2,19.2,0,0,1,47.645,66.822ZM68.822,85.894V47.75a19.176,19.176,0,0,1,0,38.144Z" transform="translate(915 458)" fill="#9aa3ab"/>
  </g>
</svg>
