<svg xmlns="http://www.w3.org/2000/svg" width="200" height="200" viewBox="0 0 200 200">
  <g id="Group_2347" data-name="Group 2347" transform="translate(-860 -403)">
    <circle id="Ellipse_495" data-name="Ellipse 495" cx="100" cy="100" r="100" transform="translate(860 403)" fill="#eff0f5"/>
    <g id="Group_2298" data-name="Group 2298" transform="translate(0.309 1.729)">
      <g id="Group_2293" data-name="Group 2293" transform="translate(926 447.879)">
        <path id="Path_7081" data-name="Path 7081" d="M2,23.055V67.275A2.1,2.1,0,0,0,4.106,69.38H14.634a2.1,2.1,0,0,0,2.106-2.106V33.584h37.9V67.275a2.1,2.1,0,0,0,2.106,2.106H67.276a2.1,2.1,0,0,0,2.106-2.106V23.055a2.1,2.1,0,0,0-1.021-1.8L36.775,2.3a2.115,2.115,0,0,0-2.167,0L3.023,21.251A2.1,2.1,0,0,0,2,23.055Zm4.211,1.192L35.691,6.56,65.17,24.247V65.169H58.853V31.478a2.1,2.1,0,0,0-2.106-2.106H14.634a2.1,2.1,0,0,0-2.106,2.106V65.169H6.211Z" transform="translate(-2 -2.001)" fill="#9aa3ab"/>
        <path id="Path_7082" data-name="Path 7082" d="M32.057,20H19.423a2.1,2.1,0,0,0-2.106,2.106V32.634H13.106A2.1,2.1,0,0,0,11,34.74V47.374a2.1,2.1,0,0,0,2.106,2.106H38.374a2.1,2.1,0,0,0,2.106-2.106V34.74a2.1,2.1,0,0,0-2.106-2.106H34.162V22.106A2.1,2.1,0,0,0,32.057,20ZM21.528,24.211h8.423v8.423H21.528Zm2.106,21.057H15.211V36.845h8.423Zm12.634-8.423v8.423H27.845V36.845Z" transform="translate(7.951 17.9)" fill="#9aa3ab"/>
      </g>
      <g id="Group_2297" data-name="Group 2297" transform="translate(930.141 514.57)">
        <g id="Group_2296" data-name="Group 2296" transform="translate(2.43 7.43)">
          <path id="Path_7088" data-name="Path 7088" d="M91.812,341.991c0-2.378,1.436-3.016,3.208-1.422l5.989,5.39a1.883,1.883,0,0,1,0,2.865l-5.989,5.39c-1.775,1.6-3.208.956-3.208-1.424v-3.239h-35.6a1.089,1.089,0,0,1-1.079-1.09v-2.136a1.068,1.068,0,0,1,1.079-1.09h35.6ZM57.288,324.73c0-2.378-1.436-3.016-3.208-1.422l-5.989,5.39a1.883,1.883,0,0,0,0,2.865l5.989,5.39c1.775,1.6,3.208.956,3.208-1.424V332.29h35.6a1.089,1.089,0,0,0,1.079-1.09v-2.136a1.068,1.068,0,0,0-1.079-1.09h-35.6Z" transform="translate(-47.43 -322.43)" fill="#9aa3ab" fill-rule="evenodd"/>
        </g>
      </g>
    </g>
  </g>
</svg>
