<svg xmlns="http://www.w3.org/2000/svg" width="200" height="200" viewBox="0 0 200 200">
  <g id="Group_2341" data-name="Group 2341" transform="translate(-860 -403)">
    <circle id="Ellipse_495" data-name="Ellipse 495" cx="100" cy="100" r="100" transform="translate(860 403)" fill="#eff0f5"/>
    <path id="Path_7052" data-name="Path 7052" d="M31.17,94.575v17.162a1.2,1.2,0,0,0,1.2,1.2h46.62a1.2,1.2,0,0,0,1.2-1.2V94.551c5.992-1.834,9.851-4.542,9.851-8.209,0-27.061-16.179-35.714-25.827-38.47h0c-.539-.156-1.067-.288-1.57-.407A17.809,17.809,0,0,0,73.5,31.081q0-.216,0-.431a18.457,18.457,0,0,0,2.217-1.462,1.2,1.2,0,0,0-.06-1.906c-.06,0-.36-.252-.9-.551-.539-3.487-2.4-14.381-5.2-16.97C66.368,6.848,56.876,5.6,55.822,5.47h-.288C54.479,5.6,44.988,6.848,41.86,9.7c-2.792,2.589-4.662,13.483-5.2,16.958-.539.312-.839.527-.9.563a1.2,1.2,0,0,0-.06,1.906,18.455,18.455,0,0,0,2.217,1.462q0,.216,0,.431A17.809,17.809,0,0,0,48.763,47.452l-1.474.384h-.072C37.569,50.592,21.39,59.244,21.39,86.306,21.318,89.841,24.638,92.6,31.17,94.575Zm46.62,15.963H33.566V66.327H49V78.815a1.2,1.2,0,0,0,1.2,1.2H61.155a1.2,1.2,0,0,0,1.2-1.2V66.327H77.789ZM51.423,77.617V66.327H59.98V77.617ZM43.49,11.5c2.133-1.965,9.372-3.272,12.188-3.6,2.816.36,10.055,1.666,12.188,3.6,1.618,1.51,3.272,8.521,4.195,13.914a41.682,41.682,0,0,0-16.383-3.068A41.514,41.514,0,0,0,39.3,25.4C40.218,20.007,41.872,13.008,43.49,11.5ZM55.678,24.741a37.859,37.859,0,0,1,16.946,3.6,33.557,33.557,0,0,1-16.946,4.219,33.557,33.557,0,0,1-16.946-4.231A37.476,37.476,0,0,1,55.678,24.741Zm-15.34,7.107a37.272,37.272,0,0,0,15.34,3.1,37.272,37.272,0,0,0,15.34-3.1,15.364,15.364,0,0,1-30.68,0Zm21.572,17.9-6.232,8.809-6.232-8.809a31.687,31.687,0,0,1,6.232-.9,31.579,31.579,0,0,1,6.232.9Zm-14.921.7L54.7,61.366a1.2,1.2,0,0,0,1.965,0l7.706-10.918c9.06,2.828,23.274,11.194,23.274,35.954,0,2.241-2.768,4.231-7.454,5.753V65.129a1.2,1.2,0,0,0-1.2-1.2H32.368a1.2,1.2,0,0,0-1.2,1.2V92.094c-4.686-1.522-7.454-3.511-7.454-5.753C23.715,61.605,37.929,53.24,46.989,50.448Z" transform="translate(904.287 443.797)" fill="#9aa3ab" stroke="#9aa3ab" stroke-width="1"/>
  </g>
</svg>
