<svg xmlns="http://www.w3.org/2000/svg" width="200" height="200" viewBox="0 0 200 200">
  <g id="Group_2397" data-name="Group 2397" transform="translate(-860 -403)">
    <circle id="Ellipse_495" data-name="Ellipse 495" cx="100" cy="100" r="100" transform="translate(860 403)" fill="#eff0f5"/>
    <g id="Group_2396" data-name="Group 2396" transform="translate(-226.5 -18.25)">
      <path id="Path_7161" data-name="Path 7161" d="M74.652,14.065H67.889a17.592,17.592,0,0,0-32.256,0H14.783A5.288,5.288,0,0,0,9.5,19.348v59.87A5.288,5.288,0,0,0,14.783,84.5h59.87a5.288,5.288,0,0,0,5.283-5.283V19.348A5.288,5.288,0,0,0,74.652,14.065ZM51.761,7.022A14.1,14.1,0,0,1,65.848,21.109c0,9.6-10.52,20.563-14.087,24-3.567-3.441-14.087-14.4-14.087-24A14.1,14.1,0,0,1,51.761,7.022ZM14.783,80.978a1.762,1.762,0,0,1-1.761-1.761V19.348a1.762,1.762,0,0,1,1.761-1.761H34.507a17.592,17.592,0,0,0-.355,3.522c0,5.133,2.432,10.4,5.418,14.959L18.937,80.978Zm61.63-1.761a1.762,1.762,0,0,1-1.761,1.761H22.812l11.4-24.814,42.2,17.193Zm0-9.661L35.684,52.963,41.921,39.39A71.8,71.8,0,0,0,50.6,48.842l1.164,1.027,1.164-1.027C53.6,48.251,69.37,34.2,69.37,21.109a17.787,17.787,0,0,0-.354-3.522h5.637a1.762,1.762,0,0,1,1.761,1.761ZM58.8,21.109a7.043,7.043,0,1,0-7.043,7.043A7.052,7.052,0,0,0,58.8,21.109Zm-10.565,0a3.522,3.522,0,1,1,3.522,3.522A3.526,3.526,0,0,1,48.239,21.109Z" transform="translate(1142 477.75)" fill="#9aa3ab"/>
    </g>
  </g>
</svg>
