<svg xmlns="http://www.w3.org/2000/svg" width="200" height="200" viewBox="0 0 200 200">
  <g id="Group_2305" data-name="Group 2305" transform="translate(-860 -365)">
    <circle id="Ellipse_495" data-name="Ellipse 495" cx="100" cy="100" r="100" transform="translate(860 365)" fill="#eff0f5"/>
    <path id="Path_7105" data-name="Path 7105" d="M478.553,188.753l-.658,1.971a2.524,2.524,0,0,1-1.27,1.465l-6.408,3.2-.942,6.59,4.527,6.791a2.531,2.531,0,0,1-.7,3.51l-5.628,3.753,3.89,6.809a2.531,2.531,0,0,1-4.395,2.511L461.9,216.5a2.53,2.53,0,0,1,.794-3.362l5.489-3.659-3.659-5.489a2.534,2.534,0,0,1-.4-1.762l1.266-8.861a2.533,2.533,0,0,1,1.375-1.906l6.657-3.328.779-2.338a35.463,35.463,0,0,0-51.473,19.947c.042.038.084.077.124.118l6.415,6.414,4.778-1.911a2.534,2.534,0,0,1,1.437-.132l6.329,1.266a2.532,2.532,0,0,1,1.947,1.816l3.44,12.616,6.309,2.1a2.531,2.531,0,0,1,1.691,2.854l-2.532,13.924a2.527,2.527,0,0,1-.871,1.491l-5.123,4.27a35.755,35.755,0,0,0,14.057,1.132,2.532,2.532,0,1,1,.6,5.028,40.478,40.478,0,1,1,35.4-35.4,2.532,2.532,0,1,1-5.028-.6,35.782,35.782,0,0,0,.249-4.225,35.375,35.375,0,0,0-13.4-27.753ZM421.4,211.567A35.5,35.5,0,0,0,441.243,248.5L447.85,243l1.975-10.859-5.511-1.838a2.531,2.531,0,0,1-1.643-1.735l-3.385-12.414-4.057-.811-5.63,2.252a2.531,2.531,0,0,1-2.73-.561l-5.463-5.463Zm62.949,50.508a17.721,17.721,0,1,1,17.721-17.721A17.721,17.721,0,0,1,484.354,262.075Zm0-5.063A12.658,12.658,0,1,0,471.7,244.354,12.658,12.658,0,0,0,484.354,257.012Zm-3.58-12.658h0l-2.008-2.008a2.531,2.531,0,1,1,3.58-3.58l2.008,2.008,2.008-2.008a2.531,2.531,0,1,1,3.58,3.58l-2.008,2.008,2.008,2.008a2.531,2.531,0,0,1-3.58,3.58l-2.008-2.008-2.008,2.008a2.531,2.531,0,0,1-3.58-3.58Z" transform="translate(501 246)" fill="#9aa3ab" fill-rule="evenodd"/>
  </g>
</svg>
