<svg xmlns="http://www.w3.org/2000/svg" width="200" height="200" viewBox="0 0 200 200">
  <g id="Group_2356" data-name="Group 2356" transform="translate(-860 -403)">
    <circle id="Ellipse_495" data-name="Ellipse 495" cx="100" cy="100" r="100" transform="translate(860 403)" fill="#eff0f5"/>
    <g id="Group_2342" data-name="Group 2342" transform="translate(915 458)">
      <path id="Path_7138" data-name="Path 7138" d="M45.416.793a32.782,32.782,0,0,0-20.2,6.765C19.045,12.45,14.526,20.529,14.526,31.711c0,11.825,7.421,23.34,14.5,32.185A130.111,130.111,0,0,0,43.163,78.921a3.429,3.429,0,0,0,4.533,0A130.1,130.1,0,0,0,61.837,63.9c7.075-8.844,14.5-20.36,14.5-32.185,0-11.181-4.52-19.261-10.695-24.152A32.856,32.856,0,0,0,45.416.793Zm0,6.866a26.486,26.486,0,0,1,15.965,5.27c4.66,3.691,8.086,9.364,8.086,18.781,0,8.773-6.2,19.656-12.974,27.88a132.9,132.9,0,0,1-11.05,12.063A134.715,134.715,0,0,1,34.366,59.591c-6.714-8.275-12.974-19.107-12.974-27.88,0-9.417,3.426-15.09,8.086-18.781a26.41,26.41,0,0,1,15.938-5.27Zm0,6.96A17.158,17.158,0,1,0,62.6,31.778,17.206,17.206,0,0,0,45.416,14.619Zm0,6.866A10.3,10.3,0,1,1,35.131,31.778,10.259,10.259,0,0,1,45.416,21.485ZM14.2,62.594a3.433,3.433,0,0,0-2.736,1.9L1.169,85.07a3.433,3.433,0,0,0,3.071,5H86.626a3.433,3.433,0,0,0,3.064-5L79.4,64.492a3.433,3.433,0,0,0-3.071-1.9H69.467a3.434,3.434,0,1,0,0,6.866h4.741L81.074,83.2H9.785L16.651,69.46h4.741a3.434,3.434,0,1,0,0-6.866H14.526q-.164-.008-.329,0Z" transform="translate(-0.793 -0.793)" fill="#9aa3ab"/>
    </g>
  </g>
</svg>
