<svg xmlns="http://www.w3.org/2000/svg" width="200" height="200" viewBox="0 0 200 200">
  <g id="Group_2287" data-name="Group 2287" transform="translate(-860 -403)">
    <circle id="Ellipse_495" data-name="Ellipse 495" cx="100" cy="100" r="100" transform="translate(860 403)" fill="#eff0f5"/>
    <g id="Group_2286" data-name="Group 2286" transform="translate(-353.05 -129)">
      <path id="Path_7073" data-name="Path 7073" d="M96.735,72.661H20.724V28.1a3.014,3.014,0,0,0-.734-1.887L18.1,24.433l-8.6-8.6a2.533,2.533,0,0,0-3.669,0,2.533,2.533,0,0,0,0,3.669l9.75,9.75V75.387a2.6,2.6,0,0,0,2.621,2.621H30.684a7.75,7.75,0,0,0-1.992,5.242,7.863,7.863,0,0,0,15.726,0,7.75,7.75,0,0,0-1.992-5.242H75.347a7.75,7.75,0,0,0-1.992,5.242,7.92,7.92,0,0,0,7.863,7.863,7.834,7.834,0,0,0,7.654-7.968A7.75,7.75,0,0,0,86.88,77.9h9.855a2.621,2.621,0,0,0,0-5.242ZM36.45,85.766a2.621,2.621,0,1,1,2.621-2.621A2.6,2.6,0,0,1,36.45,85.766Zm44.558,0a2.621,2.621,0,1,1,2.621-2.621A2.6,2.6,0,0,1,81.009,85.766Z" transform="translate(1261 584.487)" fill="#9aa3ab"/>
      <path id="Path_7074" data-name="Path 7074" d="M83.607,67.906h6.92a2.6,2.6,0,0,0,2.621-2.621V28.59a2.6,2.6,0,0,0-2.621-2.621H82.559a23.636,23.636,0,0,0-46.97,0H27.621A2.6,2.6,0,0,0,25,28.59V65.285a2.6,2.6,0,0,0,2.621,2.621ZM59.074,10.242A18.347,18.347,0,1,1,40.726,28.59,18.435,18.435,0,0,1,59.074,10.242ZM30.242,31.211h5.347a23.636,23.636,0,0,0,46.97,0h5.347V62.664H30.242Z" transform="translate(1261.966 584)" fill="#9aa3ab"/>
      <g id="Group_2285" data-name="Group 2285" transform="translate(1308.238 602.63)">
        <path id="Path_7075" data-name="Path 7075" d="M31.779,15.242a1.316,1.316,0,0,1-1.224.816H15.127a1.316,1.316,0,0,1,0-2.633h12.2L24.1,10.148a1.312,1.312,0,1,1,1.856-1.856l5.528,5.515a1.316,1.316,0,0,1,.29,1.435ZM23.025,21.06H7.6a1.316,1.316,0,0,0-.935,2.251l5.528,5.515a1.312,1.312,0,0,0,1.856-1.856L10.77,23.693H23.025a1.316,1.316,0,0,0,0-2.633Z" transform="translate(-6.274 -7.909)" fill="#9aa3ab"/>
      </g>
    </g>
  </g>
</svg>
