<svg xmlns="http://www.w3.org/2000/svg" width="200" height="200" viewBox="0 0 200 200">
  <g id="Group_2304" data-name="Group 2304" transform="translate(-860 -365)">
    <circle id="Ellipse_495" data-name="Ellipse 495" cx="100" cy="100" r="100" transform="translate(860 365)" fill="#eff0f5"/>
    <path id="Path_7104" data-name="Path 7104" d="M468.716,360.7a14.377,14.377,0,1,1,14.377,14.377A14.376,14.376,0,0,1,468.716,360.7Zm19.246-8.258a9.588,9.588,0,0,0-13.128,13.128Zm3.389,3.389-13.128,13.128a9.588,9.588,0,0,0,13.128-13.128Zm-1.07-22.687a2.4,2.4,0,0,1-4.792,0,32.349,32.349,0,1,0-32.349,32.349,2.4,2.4,0,0,1,0,4.792,37.141,37.141,0,1,1,37.141-37.141Zm-23.962-1.2a2.4,2.4,0,0,1,0,4.792H451.943a2.4,2.4,0,0,1-2.4-2.4V312.773a2.4,2.4,0,1,1,4.792,0v19.17Z" transform="translate(503 129)" fill="#9aa3ab"/>
  </g>
</svg>
