<svg xmlns="http://www.w3.org/2000/svg" width="200" height="200" viewBox="0 0 200 200">
  <g id="Group_2307" data-name="Group 2307" transform="translate(-861 -365)">
    <circle id="Ellipse_495" data-name="Ellipse 495" cx="100" cy="100" r="100" transform="translate(861 365)" fill="#eff0f5"/>
    <path id="Path_7108" data-name="Path 7108" d="M44.523,27.349a3.6,3.6,0,0,1,3.6-3.6H73.393a3.6,3.6,0,0,1,3.6,3.6V47.206a37.405,37.405,0,0,1,7.195,4.557V27.349A10.8,10.8,0,0,0,73.393,16.557H48.12A10.8,10.8,0,0,0,37.329,27.349V51.761A37.476,37.476,0,0,1,44.523,47.2ZM60.757,47.824A33.095,33.095,0,1,0,93.852,80.919,33.094,33.094,0,0,0,60.757,47.824Zm3.957,33.22V91.407a3.957,3.957,0,1,1-7.914,0V81.044a6.715,6.715,0,1,1,7.914,0Z" transform="translate(900.338 399.443)" fill="#9aa3ab"/>
  </g>
</svg>
