<svg xmlns="http://www.w3.org/2000/svg" width="200" height="200" viewBox="0 0 200 200">
  <g id="Group_2360" data-name="Group 2360" transform="translate(-860 -365)">
    <circle id="Ellipse_495" data-name="Ellipse 495" cx="100" cy="100" r="100" transform="translate(860 365)" fill="#eff0f5"/>
    <g id="Group_2310" data-name="Group 2310" transform="translate(903.905 409.742)">
      <g id="Group_2309" data-name="Group 2309" transform="translate(12.095 15.258)">
        <g id="Group_2308" data-name="Group 2308">
          <path id="Path_7111" data-name="Path 7111" d="M99.048,36.082a2.744,2.744,0,0,0-3.336.433c-.031.026-.063.055-.093.084A10.176,10.176,0,1,1,81.342,22.1a2.741,2.741,0,0,0-2.661-4.579A17.548,17.548,0,0,0,66.972,40.662l-6.693,6.7L49.66,36.75l.977-.977a3.353,3.353,0,0,0,.591-3.98L65.352,17.669a1.164,1.164,0,0,0-.614-1.969,26.788,26.788,0,0,0-22.973,6.634,3.485,3.485,0,0,0-4,.563L26.515,34.145a3.367,3.367,0,0,0-.162,4.609L23.111,42l-1.4-1.4a1.164,1.164,0,0,0-1.647,0l-7.626,7.626a1.164,1.164,0,0,0,0,1.647L23.664,61.1a1.167,1.167,0,0,0,1.647,0l7.626-7.626a1.164,1.164,0,0,0,0-1.647l-1.4-1.4L34.78,47.18a3.37,3.37,0,0,0,4.609-.16l.1-.1L50.093,57.542,47.14,60.5A16.091,16.091,0,1,0,57.327,70.683l1.322-1.322,21.1,25.546a3.621,3.621,0,0,0,2.613,1.3c.055,0,.11,0,.164,0a3.6,3.6,0,0,0,2.541-1.052L97.9,82.332A3.618,3.618,0,0,0,98.947,79.6a3.574,3.574,0,0,0-1.308-2.585l-25.532-21.1,5.062-5.062a17.422,17.422,0,0,0,18.643-4,17.855,17.855,0,0,0,4.5-7.68.119.119,0,0,1,0-.016A2.689,2.689,0,0,0,99.048,36.082Zm-37-18.4L49.7,30.027l-6.167-6.167A24.447,24.447,0,0,1,62.043,17.682ZM24.488,58.626l-9.58-9.579,5.979-5.979,1.4,1.4h0l3.389,3.389,4.791,4.791Zm5.4-9.851L27.325,46.21l-2.567-2.565,3.225-3.226,5.132,5.133Zm8.769-4.324,0,.007-.915.913a1.067,1.067,0,0,1-1.51,0L28.162,37.3a1.069,1.069,0,0,1,0-1.511L39.41,24.545a1.018,1.018,0,0,1,1.306-.136,1.138,1.138,0,0,0,.227.344,1.173,1.173,0,0,0,.472.287l7.575,7.575a1.071,1.071,0,0,1,0,1.511L47.2,35.918l-.009.006Zm2.473.825,6.88-6.88L60.065,50.448l-3.516,3.516-3.37,3.37ZM54.894,70.805a13.746,13.746,0,1,1-7.873-7.876,1.169,1.169,0,0,0,1.244-.263l3.474-3.475.3.3c0,.026,0,.052,0,.079-.01.079-.006.158-.01.239a3.5,3.5,0,0,0,.014.624c.012.1.029.192.048.289a3.773,3.773,0,0,0,.171.578c.034.085.059.17.1.254a3.7,3.7,0,0,0,.464.75l4.335,5.252-2,2A1.164,1.164,0,0,0,54.894,70.805Zm41.267,8.009a1.237,1.237,0,0,1,.459.9,1.266,1.266,0,0,1-.373.967L83.421,93.512a1.276,1.276,0,0,1-1.878-.092L54.623,60.826a1.3,1.3,0,0,1-.183-1.318,1.057,1.057,0,0,1,.255-.395l7.153-7.153a1.14,1.14,0,0,1,.4-.256c.02-.008.033-.019.054-.026a1.169,1.169,0,0,1,.408-.079c.038,0,.076,0,.114,0a1.243,1.243,0,0,1,.283.049c.036.01.073.019.108.033a1.25,1.25,0,0,1,.348.2ZM98.07,38.545a15.539,15.539,0,0,1-3.908,6.664,15.111,15.111,0,0,1-16.806,3.2,1.165,1.165,0,0,0-1.287.245l-5.764,5.764L65.057,50.09a3.578,3.578,0,0,0-.732-.459c-.065-.031-.127-.062-.193-.09a3.605,3.605,0,0,0-.776-.234c-.057-.009-.113-.007-.169-.014a3.379,3.379,0,0,0-.419-.037c-.084,0-.168.014-.252.021s-.149.007-.224.017c-.027,0-.054,0-.08.006l-.27-.269-.015-.016,7.24-7.249a1.169,1.169,0,0,0,.246-1.285A15.217,15.217,0,0,1,79.3,19.764a.38.38,0,0,1,.459.2.345.345,0,0,1-.042.457A12.46,12.46,0,0,0,78.18,36.6a12.523,12.523,0,0,0,19.051,1.688,1.065,1.065,0,0,0,.1-.092.436.436,0,0,1,.559-.087A.358.358,0,0,1,98.07,38.545Z" transform="translate(-12.095 -15.258)" fill="#9aa3ab"/>
          <path id="Path_7112" data-name="Path 7112" d="M43.416,63.459a6.6,6.6,0,1,0,.843,8.3,6.6,6.6,0,0,0-.843-8.3S43.417,63.459,43.416,63.459Zm-1.647,7.689a4.363,4.363,0,0,1-6.031,0,4.268,4.268,0,0,1,6.03-6.041,4.078,4.078,0,0,1,.351.431c.062.082.139.155.195.24a4.282,4.282,0,0,1,.322.614c.02.044.05.085.068.129A4.282,4.282,0,0,1,41.769,71.149Z" transform="translate(-8.785 -7.62)" fill="#9aa3ab"/>
        </g>
      </g>
    </g>
  </g>
</svg>
