<svg xmlns="http://www.w3.org/2000/svg" width="200" height="200" viewBox="0 0 200 200">
  <g id="Group_2359" data-name="Group 2359" transform="translate(-860 -365)">
    <circle id="Ellipse_495" data-name="Ellipse 495" cx="100" cy="100" r="100" transform="translate(860 365)" fill="#eff0f5"/>
    <path id="Path_7113" data-name="Path 7113" d="M32.483,67.659h9.725V83.867H35.725a3.242,3.242,0,0,0,0,6.483h19.45a3.242,3.242,0,1,0,0-6.483H48.692V67.659H81.109V83.867H74.625a3.242,3.242,0,0,0,0,6.483h19.45a3.242,3.242,0,0,0,0-6.483H87.592V67.659h9.725a6.483,6.483,0,0,0,6.483-6.483V38.483A6.483,6.483,0,0,0,97.317,32H32.483A6.483,6.483,0,0,0,26,38.483V61.175A6.483,6.483,0,0,0,32.483,67.659Zm0-6.483V43.346L47.865,61.175ZM50.475,38.483,70.492,61.175h-14.2a3.112,3.112,0,0,0-.292-.5L36.779,38.483ZM78.986,61.175a2.741,2.741,0,0,0-.308-.519L59.114,38.483H73.151L92.811,61.175Zm18.332-4.7L81.725,38.483H97.317Z" transform="translate(895 403.825)" fill="#9aa3ab"/>
  </g>
</svg>
